<?xml version="1.0" standalone="no"?>
<svg width="1814.1000000000001" height="566.90625" xmlns="http://www.w3.org/2000/svg" id="svgvm1"><g transform="translate(5,5)" style="font-family: sans-serif;"><g transform="translate(0,1)"><g><g class="tactic initial-access" transform="translate(0, 0)"><g class="techniques"><g class="technique T1566" transform="translate(0, 46.408854166666664)"><rect class="cell" height="46.408854166666664" width="182.43707865168543" fill="#dadaeb" stroke="#6B7279"/><polygon class="sidebar" transform="translate(0, 46.408854166666664)" points="0,0 12,0 12,12" fill="#6B7279" visibility="visible"/><text font-size="12" fill="black"><tspan x="4" y="26.704427083333332">Phishing</tspan></text></g><g class="technique T1078" transform="translate(0, 139.2265625)"><rect class="cell" height="46.408854166666664" width="182.43707865168543" fill="#dadaeb" stroke="#6B7279"/><polygon class="sidebar" transform="translate(0, 46.408854166666664)" points="0,0 12,0 12,12" fill="#6B7279" visibility="visible"/><text font-size="12" fill="black"><tspan x="4" y="26.704427083333332">Valid Accounts</tspan></text></g></g><g class="subtechniques"><g class="subtechnique T1566.001" transform="translate(15, 92.81770833333333)"><rect class="cell" height="46.408854166666664" width="167.43707865168543" fill="white" stroke="#6B7279"/><rect class="cell" height="46.408854166666664" width="3" transform="translate(-3, 0)" fill="#6B7279" stroke="#6B7279"/><text font-size="12" fill="black"><tspan x="4" y="19.454427083333332">Spearphishing</tspan><tspan x="4" y="33.95442708333333">Attachment</tspan></text></g><g class="subtechnique T1078.001" transform="translate(15, 185.63541666666666)"><rect class="cell" height="46.408854166666664" width="167.43707865168543" fill="white" stroke="#6B7279"/><rect class="cell" height="46.408854166666664" width="3" transform="translate(-3, 0)" fill="#6B7279" stroke="#6B7279"/><text font-size="12" fill="black"><tspan x="4" y="26.704427083333332">Default Accounts</tspan></text></g><g class="subtechnique T1078.002" transform="translate(15, 232.04427083333334)"><rect class="cell" height="46.408854166666664" width="167.43707865168543" fill="white" stroke="#6B7279"/><rect class="cell" height="46.408854166666664" width="3" transform="translate(-3, 0)" fill="#6B7279" stroke="#6B7279"/><text font-size="12" fill="black"><tspan x="4" y="26.704427083333332">Domain Accounts</tspan></text></g><g class="subtechnique T1078.003" transform="translate(15, 278.453125)"><rect class="cell" height="46.408854166666664" width="167.43707865168543" fill="white" stroke="#6B7279"/><rect class="cell" height="46.408854166666664" width="3" transform="translate(-3, 0)" fill="#6B7279" stroke="#6B7279"/><text font-size="12" fill="black"><tspan x="4" y="26.704427083333332">Local Accounts</tspan></text></g></g><g class="tactic-label"><text font-size="12" fill="black" font-weight="bold"><tspan text-anchor="middle" x="91.21853932584271" y="26.704427083333332">Initial Access</tspan></text></g></g><g class="tactic execution" transform="translate(202.70786516853934, 0)"><g class="techniques"><g class="technique T1053" transform="translate(0, 46.408854166666664)"><rect class="cell" height="46.408854166666664" width="182.43707865168543" fill="#dadaeb" stroke="#6B7279"/><polygon class="sidebar" transform="translate(0, 46.408854166666664)" points="0,0 12,0 12,12" fill="#6B7279" visibility="visible"/><text font-size="12" fill="black"><tspan x="4" y="26.704427083333332">Scheduled Task/Job</tspan></text></g><g class="technique T1204" transform="translate(0, 185.63541666666666)"><rect class="cell" height="46.408854166666664" width="182.43707865168543" fill="#dadaeb" stroke="#6B7279"/><polygon class="sidebar" transform="translate(0, 46.408854166666664)" points="0,0 12,0 12,12" fill="#6B7279" visibility="visible"/><text font-size="12" fill="black"><tspan x="4" y="26.704427083333332">User Execution</tspan></text></g></g><g class="subtechniques"><g class="subtechnique T1053.002" transform="translate(15, 92.81770833333333)"><rect class="cell" height="46.408854166666664" width="167.43707865168543" fill="white" stroke="#6B7279"/><rect class="cell" height="46.408854166666664" width="3" transform="translate(-3, 0)" fill="#6B7279" stroke="#6B7279"/><text font-size="12" fill="black"><tspan x="4" y="26.704427083333332">At (Windows)</tspan></text></g><g class="subtechnique T1053.005" transform="translate(15, 139.2265625)"><rect class="cell" height="46.408854166666664" width="167.43707865168543" fill="white" stroke="#6B7279"/><rect class="cell" height="46.408854166666664" width="3" transform="translate(-3, 0)" fill="#6B7279" stroke="#6B7279"/><text font-size="12" fill="black"><tspan x="4" y="26.704427083333332">Scheduled Task</tspan></text></g><g class="subtechnique T1204.001" transform="translate(15, 232.04427083333334)"><rect class="cell" height="46.408854166666664" width="167.43707865168543" fill="white" stroke="#6B7279"/><rect class="cell" height="46.408854166666664" width="3" transform="translate(-3, 0)" fill="#6B7279" stroke="#6B7279"/><text font-size="12" fill="black"><tspan x="4" y="26.704427083333332">Malicious Link</tspan></text></g><g class="subtechnique T1204.002" transform="translate(15, 278.453125)"><rect class="cell" height="46.408854166666664" width="167.43707865168543" fill="white" stroke="#6B7279"/><rect class="cell" height="46.408854166666664" width="3" transform="translate(-3, 0)" fill="#6B7279" stroke="#6B7279"/><text font-size="12" fill="black"><tspan x="4" y="26.704427083333332">Malicious File</tspan></text></g></g><g class="tactic-label"><text font-size="12" fill="black" font-weight="bold"><tspan text-anchor="middle" x="91.21853932584271" y="26.704427083333332">Execution</tspan></text></g></g><g class="tactic persistence" transform="translate(405.4157303370787, 0)"><g class="techniques"><g class="technique T1547" transform="translate(0, 46.408854166666664)"><rect class="cell" height="46.408854166666664" width="182.43707865168543" fill="#dadaeb" stroke="#6B7279"/><polygon class="sidebar" transform="translate(0, 46.408854166666664)" points="0,0 12,0 12,12" fill="#6B7279" visibility="visible"/><text font-size="12" fill="black"><tspan x="4" y="19.454427083333332">Boot or Logon</tspan><tspan x="4" y="33.95442708333333">Autostart Execution</tspan></text></g><g class="technique T1542" transform="translate(0, 139.2265625)"><rect class="cell" height="46.408854166666664" width="182.43707865168543" fill="#dadaeb" stroke="#6B7279"/><polygon class="sidebar" transform="translate(0, 46.408854166666664)" points="0,0 12,0 12,12" fill="#6B7279" visibility="visible"/><text font-size="12" fill="black"><tspan x="4" y="26.704427083333332">Pre-OS Boot</tspan></text></g><g class="technique T1053" transform="translate(0, 232.04427083333334)"><rect class="cell" height="46.408854166666664" width="182.43707865168543" fill="#dadaeb" stroke="#6B7279"/><polygon class="sidebar" transform="translate(0, 46.408854166666664)" points="0,0 12,0 12,12" fill="#6B7279" visibility="visible"/><text font-size="12" fill="black"><tspan x="4" y="26.704427083333332">Scheduled Task/Job</tspan></text></g><g class="technique T1078" transform="translate(0, 371.2708333333333)"><rect class="cell" height="46.408854166666664" width="182.43707865168543" fill="#dadaeb" stroke="#6B7279"/><polygon class="sidebar" transform="translate(0, 46.408854166666664)" points="0,0 12,0 12,12" fill="#6B7279" visibility="visible"/><text font-size="12" fill="black"><tspan x="4" y="26.704427083333332">Valid Accounts</tspan></text></g></g><g class="subtechniques"><g class="subtechnique T1547.001" transform="translate(15, 92.81770833333333)"><rect class="cell" height="46.408854166666664" width="167.43707865168543" fill="white" stroke="#6B7279"/><rect class="cell" height="46.408854166666664" width="3" transform="translate(-3, 0)" fill="#6B7279" stroke="#6B7279"/><text font-size="12" fill="black"><tspan x="4" y="19.454427083333332">Registry Run Keys /</tspan><tspan x="4" y="33.95442708333333">Startup Folder</tspan></text></g><g class="subtechnique T1542.003" transform="translate(15, 185.63541666666666)"><rect class="cell" height="46.408854166666664" width="167.43707865168543" fill="white" stroke="#6B7279"/><rect class="cell" height="46.408854166666664" width="3" transform="translate(-3, 0)" fill="#6B7279" stroke="#6B7279"/><text font-size="12" fill="black"><tspan x="4" y="26.704427083333332">Bootkit</tspan></text></g><g class="subtechnique T1053.002" transform="translate(15, 278.453125)"><rect class="cell" height="46.408854166666664" width="167.43707865168543" fill="white" stroke="#6B7279"/><rect class="cell" height="46.408854166666664" width="3" transform="translate(-3, 0)" fill="#6B7279" stroke="#6B7279"/><text font-size="12" fill="black"><tspan x="4" y="26.704427083333332">At (Windows)</tspan></text></g><g class="subtechnique T1053.005" transform="translate(15, 324.8619791666667)"><rect class="cell" height="46.408854166666664" width="167.43707865168543" fill="white" stroke="#6B7279"/><rect class="cell" height="46.408854166666664" width="3" transform="translate(-3, 0)" fill="#6B7279" stroke="#6B7279"/><text font-size="12" fill="black"><tspan x="4" y="26.704427083333332">Scheduled Task</tspan></text></g><g class="subtechnique T1078.001" transform="translate(15, 417.6796875)"><rect class="cell" height="46.408854166666664" width="167.43707865168543" fill="white" stroke="#6B7279"/><rect class="cell" height="46.408854166666664" width="3" transform="translate(-3, 0)" fill="#6B7279" stroke="#6B7279"/><text font-size="12" fill="black"><tspan x="4" y="26.704427083333332">Default Accounts</tspan></text></g><g class="subtechnique T1078.002" transform="translate(15, 464.0885416666667)"><rect class="cell" height="46.408854166666664" width="167.43707865168543" fill="white" stroke="#6B7279"/><rect class="cell" height="46.408854166666664" width="3" transform="translate(-3, 0)" fill="#6B7279" stroke="#6B7279"/><text font-size="12" fill="black"><tspan x="4" y="26.704427083333332">Domain Accounts</tspan></text></g><g class="subtechnique T1078.003" transform="translate(15, 510.4973958333333)"><rect class="cell" height="46.408854166666664" width="167.43707865168543" fill="white" stroke="#6B7279"/><rect class="cell" height="46.408854166666664" width="3" transform="translate(-3, 0)" fill="#6B7279" stroke="#6B7279"/><text font-size="12" fill="black"><tspan x="4" y="26.704427083333332">Local Accounts</tspan></text></g></g><g class="tactic-label"><text font-size="12" fill="black" font-weight="bold"><tspan text-anchor="middle" x="91.21853932584271" y="26.704427083333332">Persistence</tspan></text></g></g><g class="tactic privilege-escalation" transform="translate(608.123595505618, 0)"><g class="techniques"><g class="technique T1547" transform="translate(0, 46.408854166666664)"><rect class="cell" height="46.408854166666664" width="182.43707865168543" fill="#dadaeb" stroke="#6B7279"/><polygon class="sidebar" transform="translate(0, 46.408854166666664)" points="0,0 12,0 12,12" fill="#6B7279" visibility="visible"/><text font-size="12" fill="black"><tspan x="4" y="19.454427083333332">Boot or Logon</tspan><tspan x="4" y="33.95442708333333">Autostart Execution</tspan></text></g><g class="technique T1053" transform="translate(0, 139.2265625)"><rect class="cell" height="46.408854166666664" width="182.43707865168543" fill="#dadaeb" stroke="#6B7279"/><polygon class="sidebar" transform="translate(0, 46.408854166666664)" points="0,0 12,0 12,12" fill="#6B7279" visibility="visible"/><text font-size="12" fill="black"><tspan x="4" y="26.704427083333332">Scheduled Task/Job</tspan></text></g><g class="technique T1078" transform="translate(0, 278.453125)"><rect class="cell" height="46.408854166666664" width="182.43707865168543" fill="#dadaeb" stroke="#6B7279"/><polygon class="sidebar" transform="translate(0, 46.408854166666664)" points="0,0 12,0 12,12" fill="#6B7279" visibility="visible"/><text font-size="12" fill="black"><tspan x="4" y="26.704427083333332">Valid Accounts</tspan></text></g></g><g class="subtechniques"><g class="subtechnique T1547.001" transform="translate(15, 92.81770833333333)"><rect class="cell" height="46.408854166666664" width="167.43707865168543" fill="white" stroke="#6B7279"/><rect class="cell" height="46.408854166666664" width="3" transform="translate(-3, 0)" fill="#6B7279" stroke="#6B7279"/><text font-size="12" fill="black"><tspan x="4" y="19.454427083333332">Registry Run Keys /</tspan><tspan x="4" y="33.95442708333333">Startup Folder</tspan></text></g><g class="subtechnique T1053.002" transform="translate(15, 185.63541666666666)"><rect class="cell" height="46.408854166666664" width="167.43707865168543" fill="white" stroke="#6B7279"/><rect class="cell" height="46.408854166666664" width="3" transform="translate(-3, 0)" fill="#6B7279" stroke="#6B7279"/><text font-size="12" fill="black"><tspan x="4" y="26.704427083333332">At (Windows)</tspan></text></g><g class="subtechnique T1053.005" transform="translate(15, 232.04427083333334)"><rect class="cell" height="46.408854166666664" width="167.43707865168543" fill="white" stroke="#6B7279"/><rect class="cell" height="46.408854166666664" width="3" transform="translate(-3, 0)" fill="#6B7279" stroke="#6B7279"/><text font-size="12" fill="black"><tspan x="4" y="26.704427083333332">Scheduled Task</tspan></text></g><g class="subtechnique T1078.001" transform="translate(15, 324.8619791666667)"><rect class="cell" height="46.408854166666664" width="167.43707865168543" fill="white" stroke="#6B7279"/><rect class="cell" height="46.408854166666664" width="3" transform="translate(-3, 0)" fill="#6B7279" stroke="#6B7279"/><text font-size="12" fill="black"><tspan x="4" y="26.704427083333332">Default Accounts</tspan></text></g><g class="subtechnique T1078.002" transform="translate(15, 371.2708333333333)"><rect class="cell" height="46.408854166666664" width="167.43707865168543" fill="white" stroke="#6B7279"/><rect class="cell" height="46.408854166666664" width="3" transform="translate(-3, 0)" fill="#6B7279" stroke="#6B7279"/><text font-size="12" fill="black"><tspan x="4" y="26.704427083333332">Domain Accounts</tspan></text></g><g class="subtechnique T1078.003" transform="translate(15, 417.6796875)"><rect class="cell" height="46.408854166666664" width="167.43707865168543" fill="white" stroke="#6B7279"/><rect class="cell" height="46.408854166666664" width="3" transform="translate(-3, 0)" fill="#6B7279" stroke="#6B7279"/><text font-size="12" fill="black"><tspan x="4" y="26.704427083333332">Local Accounts</tspan></text></g></g><g class="tactic-label"><text font-size="12" fill="black" font-weight="bold"><tspan text-anchor="middle" x="91.21853932584271" y="26.704427083333332">Privilege Escalation</tspan></text></g></g><g class="tactic defense-evasion" transform="translate(810.8314606741574, 0)"><g class="techniques"><g class="technique T1542" transform="translate(0, 46.408854166666664)"><rect class="cell" height="46.408854166666664" width="182.43707865168543" fill="#dadaeb" stroke="#6B7279"/><polygon class="sidebar" transform="translate(0, 46.408854166666664)" points="0,0 12,0 12,12" fill="#6B7279" visibility="visible"/><text font-size="12" fill="black"><tspan x="4" y="26.704427083333332">Pre-OS Boot</tspan></text></g><g class="technique T1078" transform="translate(0, 139.2265625)"><rect class="cell" height="46.408854166666664" width="182.43707865168543" fill="#dadaeb" stroke="#6B7279"/><polygon class="sidebar" transform="translate(0, 46.408854166666664)" points="0,0 12,0 12,12" fill="#6B7279" visibility="visible"/><text font-size="12" fill="black"><tspan x="4" y="26.704427083333332">Valid Accounts</tspan></text></g><g class="technique T1497" transform="translate(0, 324.8619791666667)"><rect class="cell" height="46.408854166666664" width="182.43707865168543" fill="#dadaeb" stroke="#6B7279"/><polygon class="sidebar" transform="translate(0, 46.408854166666664)" points="0,0 12,0 12,12" fill="#6B7279" visibility="visible"/><text font-size="11.496989274770176" fill="black"><tspan x="4" y="19.454427083333332">Virtualization/Sandbox</tspan><tspan x="4" y="33.95442708333333">Evasion</tspan></text></g></g><g class="subtechniques"><g class="subtechnique T1542.003" transform="translate(15, 92.81770833333333)"><rect class="cell" height="46.408854166666664" width="167.43707865168543" fill="white" stroke="#6B7279"/><rect class="cell" height="46.408854166666664" width="3" transform="translate(-3, 0)" fill="#6B7279" stroke="#6B7279"/><text font-size="12" fill="black"><tspan x="4" y="26.704427083333332">Bootkit</tspan></text></g><g class="subtechnique T1078.001" transform="translate(15, 185.63541666666666)"><rect class="cell" height="46.408854166666664" width="167.43707865168543" fill="white" stroke="#6B7279"/><rect class="cell" height="46.408854166666664" width="3" transform="translate(-3, 0)" fill="#6B7279" stroke="#6B7279"/><text font-size="12" fill="black"><tspan x="4" y="26.704427083333332">Default Accounts</tspan></text></g><g class="subtechnique T1078.002" transform="translate(15, 232.04427083333334)"><rect class="cell" height="46.408854166666664" width="167.43707865168543" fill="white" stroke="#6B7279"/><rect class="cell" height="46.408854166666664" width="3" transform="translate(-3, 0)" fill="#6B7279" stroke="#6B7279"/><text font-size="12" fill="black"><tspan x="4" y="26.704427083333332">Domain Accounts</tspan></text></g><g class="subtechnique T1078.003" transform="translate(15, 278.453125)"><rect class="cell" height="46.408854166666664" width="167.43707865168543" fill="white" stroke="#6B7279"/><rect class="cell" height="46.408854166666664" width="3" transform="translate(-3, 0)" fill="#6B7279" stroke="#6B7279"/><text font-size="12" fill="black"><tspan x="4" y="26.704427083333332">Local Accounts</tspan></text></g><g class="subtechnique T1497.001" transform="translate(15, 371.2708333333333)"><rect class="cell" height="46.408854166666664" width="167.43707865168543" fill="white" stroke="#6B7279"/><rect class="cell" height="46.408854166666664" width="3" transform="translate(-3, 0)" fill="#6B7279" stroke="#6B7279"/><text font-size="12" fill="black"><tspan x="4" y="26.704427083333332">System Checks</tspan></text></g><g class="subtechnique T1497.002" transform="translate(15, 417.6796875)"><rect class="cell" height="46.408854166666664" width="167.43707865168543" fill="white" stroke="#6B7279"/><rect class="cell" height="46.408854166666664" width="3" transform="translate(-3, 0)" fill="#6B7279" stroke="#6B7279"/><text font-size="12" fill="black"><tspan x="4" y="19.454427083333332">User Activity Based</tspan><tspan x="4" y="33.95442708333333">Checks</tspan></text></g><g class="subtechnique T1497.003" transform="translate(15, 464.0885416666667)"><rect class="cell" height="46.408854166666664" width="167.43707865168543" fill="white" stroke="#6B7279"/><rect class="cell" height="46.408854166666664" width="3" transform="translate(-3, 0)" fill="#6B7279" stroke="#6B7279"/><text font-size="12" fill="black"><tspan x="4" y="26.704427083333332">Time Based Evasion</tspan></text></g></g><g class="tactic-label"><text font-size="12" fill="black" font-weight="bold"><tspan text-anchor="middle" x="91.21853932584271" y="26.704427083333332">Defense Evasion</tspan></text></g></g><g class="tactic credential-access" transform="translate(1013.5393258426967, 0)"><g class="techniques"><g class="technique T1552" transform="translate(0, 46.408854166666664)"><rect class="cell" height="46.408854166666664" width="182.43707865168543" fill="#dadaeb" stroke="#6B7279"/><polygon class="sidebar" transform="translate(0, 46.408854166666664)" points="0,0 12,0 12,12" fill="#6B7279" visibility="visible"/><text font-size="12" fill="black"><tspan x="4" y="26.704427083333332">Unsecured Credentials</tspan></text></g></g><g class="subtechniques"><g class="subtechnique T1552.001" transform="translate(15, 92.81770833333333)"><rect class="cell" height="46.408854166666664" width="167.43707865168543" fill="white" stroke="#6B7279"/><rect class="cell" height="46.408854166666664" width="3" transform="translate(-3, 0)" fill="#6B7279" stroke="#6B7279"/><text font-size="12" fill="black"><tspan x="4" y="19.454427083333332">Credentials In</tspan><tspan x="4" y="33.95442708333333">Files</tspan></text></g></g><g class="tactic-label"><text font-size="12" fill="black" font-weight="bold"><tspan text-anchor="middle" x="91.21853932584271" y="26.704427083333332">Credential Access</tspan></text></g></g><g class="tactic discovery" transform="translate(1216.247191011236, 0)"><g class="techniques"><g class="technique T1083" transform="translate(0, 46.408854166666664)"><rect class="cell" height="46.408854166666664" width="182.43707865168543" fill="#dadaeb" stroke="#6B7279"/><polygon class="sidebar" transform="translate(0, 46.408854166666664)" points="0,0 12,0 12,0" fill="#6B7279" visibility="hidden"/><text font-size="12" fill="black"><tspan x="4" y="19.454427083333332">File and Directory</tspan><tspan x="4" y="33.95442708333333">Discovery</tspan></text></g><g class="technique T1057" transform="translate(0, 92.81770833333333)"><rect class="cell" height="46.408854166666664" width="182.43707865168543" fill="#dadaeb" stroke="#6B7279"/><polygon class="sidebar" transform="translate(0, 46.408854166666664)" points="0,0 12,0 12,0" fill="#6B7279" visibility="hidden"/><text font-size="12" fill="black"><tspan x="4" y="26.704427083333332">Process Discovery</tspan></text></g><g class="technique T1497" transform="translate(0, 139.2265625)"><rect class="cell" height="46.408854166666664" width="182.43707865168543" fill="#dadaeb" stroke="#6B7279"/><polygon class="sidebar" transform="translate(0, 46.408854166666664)" points="0,0 12,0 12,12" fill="#6B7279" visibility="visible"/><text font-size="11.496989274770176" fill="black"><tspan x="4" y="19.454427083333332">Virtualization/Sandbox</tspan><tspan x="4" y="33.95442708333333">Evasion</tspan></text></g></g><g class="subtechniques"><g class="subtechnique T1497.001" transform="translate(15, 185.63541666666666)"><rect class="cell" height="46.408854166666664" width="167.43707865168543" fill="white" stroke="#6B7279"/><rect class="cell" height="46.408854166666664" width="3" transform="translate(-3, 0)" fill="#6B7279" stroke="#6B7279"/><text font-size="12" fill="black"><tspan x="4" y="26.704427083333332">System Checks</tspan></text></g><g class="subtechnique T1497.002" transform="translate(15, 232.04427083333334)"><rect class="cell" height="46.408854166666664" width="167.43707865168543" fill="white" stroke="#6B7279"/><rect class="cell" height="46.408854166666664" width="3" transform="translate(-3, 0)" fill="#6B7279" stroke="#6B7279"/><text font-size="12" fill="black"><tspan x="4" y="19.454427083333332">User Activity Based</tspan><tspan x="4" y="33.95442708333333">Checks</tspan></text></g><g class="subtechnique T1497.003" transform="translate(15, 278.453125)"><rect class="cell" height="46.408854166666664" width="167.43707865168543" fill="white" stroke="#6B7279"/><rect class="cell" height="46.408854166666664" width="3" transform="translate(-3, 0)" fill="#6B7279" stroke="#6B7279"/><text font-size="12" fill="black"><tspan x="4" y="26.704427083333332">Time Based Evasion</tspan></text></g></g><g class="tactic-label"><text font-size="12" fill="black" font-weight="bold"><tspan text-anchor="middle" x="91.21853932584271" y="26.704427083333332">Discovery</tspan></text></g></g><g class="tactic collection" transform="translate(1418.9550561797755, 0)"><g class="techniques"><g class="technique T1119" transform="translate(0, 46.408854166666664)"><rect class="cell" height="46.408854166666664" width="182.43707865168543" fill="#dadaeb" stroke="#6B7279"/><polygon class="sidebar" transform="translate(0, 46.408854166666664)" points="0,0 12,0 12,0" fill="#6B7279" visibility="hidden"/><text font-size="12" fill="black"><tspan x="4" y="26.704427083333332">Automated Collection</tspan></text></g><g class="technique T1005" transform="translate(0, 92.81770833333333)"><rect class="cell" height="46.408854166666664" width="182.43707865168543" fill="#dadaeb" stroke="#6B7279"/><polygon class="sidebar" transform="translate(0, 46.408854166666664)" points="0,0 12,0 12,0" fill="#6B7279" visibility="hidden"/><text font-size="12" fill="black"><tspan x="4" y="19.454427083333332">Data from Local</tspan><tspan x="4" y="33.95442708333333">System</tspan></text></g></g><g class="subtechniques"/><g class="tactic-label"><text font-size="12" fill="black" font-weight="bold"><tspan text-anchor="middle" x="91.21853932584271" y="26.704427083333332">Collection</tspan></text></g></g><g class="tactic impact" transform="translate(1621.6629213483147, 0)"><g class="techniques"><g class="technique T1486" transform="translate(0, 46.408854166666664)"><rect class="cell" height="46.408854166666664" width="182.43707865168543" fill="#dadaeb" stroke="#6B7279"/><polygon class="sidebar" transform="translate(0, 46.408854166666664)" points="0,0 12,0 12,0" fill="#6B7279" visibility="hidden"/><text font-size="12" fill="black"><tspan x="4" y="19.454427083333332">Data Encrypted for</tspan><tspan x="4" y="33.95442708333333">Impact</tspan></text></g><g class="technique T1490" transform="translate(0, 92.81770833333333)"><rect class="cell" height="46.408854166666664" width="182.43707865168543" fill="#dadaeb" stroke="#6B7279"/><polygon class="sidebar" transform="translate(0, 46.408854166666664)" points="0,0 12,0 12,0" fill="#6B7279" visibility="hidden"/><text font-size="12" fill="black"><tspan x="4" y="19.454427083333332">Inhibit System</tspan><tspan x="4" y="33.95442708333333">Recovery</tspan></text></g><g class="technique T1489" transform="translate(0, 139.2265625)"><rect class="cell" height="46.408854166666664" width="182.43707865168543" fill="#dadaeb" stroke="#6B7279"/><polygon class="sidebar" transform="translate(0, 46.408854166666664)" points="0,0 12,0 12,0" fill="#6B7279" visibility="hidden"/><text font-size="12" fill="black"><tspan x="4" y="26.704427083333332">Service Stop</tspan></text></g></g><g class="subtechniques"/><g class="tactic-label"><text font-size="12" fill="black" font-weight="bold"><tspan text-anchor="middle" x="91.21853932584271" y="26.704427083333332">Impact</tspan></text></g></g></g></g></g></svg>