<?xml version="1.0" standalone="no"?>
<svg width="1056" height="816" xmlns="http://www.w3.org/2000/svg" id="svgvm0"><g transform="translate(5,5)" style="font-family: sans-serif;"><g transform="translate(0,1)"><g><g class="tactic initial-access" transform="translate(0, 0)"><g class="techniques"><g class="technique T1566" transform="translate(0, 73.27272727272728)"><rect class="cell" height="73.27272727272728" width="86.36697247706422" fill="#c7e9c0" stroke="#6B7279"/><polygon class="sidebar" transform="translate(0, 73.27272727272728)" points="0,0 12,0 12,12" fill="#6B7279" visibility="visible"/><text font-size="12" fill="black"><tspan x="4" y="40.13636363636364">Phishing</tspan></text></g><g class="technique T1078" transform="translate(0, 293.0909090909091)"><rect class="cell" height="73.27272727272728" width="86.36697247706422" fill="#c7e9c0" stroke="#6B7279"/><polygon class="sidebar" transform="translate(0, 73.27272727272728)" points="0,0 12,0 12,12" fill="#6B7279" visibility="visible"/><text font-size="12" fill="black"><tspan x="4" y="32.88636363636364">Valid</tspan><tspan x="4" y="47.38636363636364">Accounts</tspan></text></g></g><g class="subtechniques"><g class="subtechnique T1566.001" transform="translate(15, 146.54545454545456)"><rect class="cell" height="73.27272727272728" width="71.36697247706422" fill="white" stroke="#6B7279"/><rect class="cell" height="73.27272727272728" width="3" transform="translate(-3, 0)" fill="#6B7279" stroke="#6B7279"/><text font-size="7.067854622441779" fill="black"><tspan x="4" y="31.88636363636364">Spearphishing</tspan><tspan x="4" y="46.38636363636364">Attachment</tspan></text></g><g class="subtechnique T1566.002" transform="translate(15, 219.8181818181818)"><rect class="cell" height="73.27272727272728" width="71.36697247706422" fill="white" stroke="#6B7279"/><rect class="cell" height="73.27272727272728" width="3" transform="translate(-3, 0)" fill="#6B7279" stroke="#6B7279"/><text font-size="7.067854622441779" fill="black"><tspan x="4" y="31.88636363636364">Spearphishing</tspan><tspan x="4" y="46.38636363636364">Link</tspan></text></g><g class="subtechnique T1078.003" transform="translate(15, 366.3636363636364)"><rect class="cell" height="73.27272727272728" width="71.36697247706422" fill="white" stroke="#6B7279"/><rect class="cell" height="73.27272727272728" width="3" transform="translate(-3, 0)" fill="#6B7279" stroke="#6B7279"/><text font-size="11.48526376146789" fill="black"><tspan x="4" y="32.88636363636364">Local</tspan><tspan x="4" y="47.38636363636364">Accounts</tspan></text></g></g><g class="tactic-label"><text font-size="12" fill="black" font-weight="bold"><tspan text-anchor="middle" x="43.18348623853211" y="32.88636363636364">Initial</tspan><tspan text-anchor="middle" x="43.18348623853211" y="47.38636363636364">Access</tspan></text></g></g><g class="tactic execution" transform="translate(95.96330275229357, 0)"><g class="techniques"><g class="technique T1059" transform="translate(0, 73.27272727272728)"><rect class="cell" height="73.27272727272728" width="86.36697247706422" fill="#c7e9c0" stroke="#6B7279"/><polygon class="sidebar" transform="translate(0, 73.27272727272728)" points="0,0 12,0 12,12" fill="#6B7279" visibility="visible"/><text font-size="10.330191826522102" fill="black"><tspan x="4" y="25.469696969696972">Command and</tspan><tspan x="4" y="40.13636363636364">Scripting</tspan><tspan x="4" y="54.803030303030305">Interpreter</tspan></text></g><g class="technique T1053" transform="translate(0, 366.3636363636364)"><rect class="cell" height="73.27272727272728" width="86.36697247706422" fill="#c7e9c0" stroke="#6B7279"/><polygon class="sidebar" transform="translate(0, 73.27272727272728)" points="0,0 12,0 12,12" fill="#6B7279" visibility="visible"/><text font-size="12" fill="black"><tspan x="4" y="32.88636363636364">Scheduled</tspan><tspan x="4" y="47.38636363636364">Task/Job</tspan></text></g><g class="technique T1204" transform="translate(0, 512.9090909090909)"><rect class="cell" height="73.27272727272728" width="86.36697247706422" fill="#c7e9c0" stroke="#6B7279"/><polygon class="sidebar" transform="translate(0, 73.27272727272728)" points="0,0 12,0 12,12" fill="#6B7279" visibility="visible"/><text font-size="12" fill="black"><tspan x="4" y="32.88636363636364">User</tspan><tspan x="4" y="47.38636363636364">Execution</tspan></text></g><g class="technique T1047" transform="translate(0, 732.7272727272727)"><rect class="cell" height="73.27272727272728" width="86.36697247706422" fill="#c7e9c0" stroke="#6B7279"/><polygon class="sidebar" transform="translate(0, 73.27272727272728)" points="0,0 12,0 12,0" fill="#6B7279" visibility="hidden"/><text font-size="7.575474006116208" fill="black"><tspan x="4" y="24.469696969696972">Windows</tspan><tspan x="4" y="39.13636363636364">Management</tspan><tspan x="4" y="53.803030303030305">Instrumentation</tspan></text></g></g><g class="subtechniques"><g class="subtechnique T1059.001" transform="translate(15, 146.54545454545456)"><rect class="cell" height="73.27272727272728" width="71.36697247706422" fill="white" stroke="#6B7279"/><rect class="cell" height="73.27272727272728" width="3" transform="translate(-3, 0)" fill="#6B7279" stroke="#6B7279"/><text font-size="9.188211009174312" fill="black"><tspan x="4" y="39.13636363636364">PowerShell</tspan></text></g><g class="subtechnique T1059.003" transform="translate(15, 219.8181818181818)"><rect class="cell" height="73.27272727272728" width="71.36697247706422" fill="white" stroke="#6B7279"/><rect class="cell" height="73.27272727272728" width="3" transform="translate(-3, 0)" fill="#6B7279" stroke="#6B7279"/><text font-size="12" fill="black"><tspan x="4" y="25.469696969696972">Windows</tspan><tspan x="4" y="40.13636363636364">Command</tspan><tspan x="4" y="54.803030303030305">Shell</tspan></text></g><g class="subtechnique T1059.005" transform="translate(15, 293.0909090909091)"><rect class="cell" height="73.27272727272728" width="71.36697247706422" fill="white" stroke="#6B7279"/><rect class="cell" height="73.27272727272728" width="3" transform="translate(-3, 0)" fill="#6B7279" stroke="#6B7279"/><text font-size="12" fill="black"><tspan x="4" y="32.88636363636364">Visual</tspan><tspan x="4" y="47.38636363636364">Basic</tspan></text></g><g class="subtechnique T1053.005" transform="translate(15, 439.6363636363636)"><rect class="cell" height="73.27272727272728" width="71.36697247706422" fill="white" stroke="#6B7279"/><rect class="cell" height="73.27272727272728" width="3" transform="translate(-3, 0)" fill="#6B7279" stroke="#6B7279"/><text font-size="10.209123343527013" fill="black"><tspan x="4" y="32.88636363636364">Scheduled</tspan><tspan x="4" y="47.38636363636364">Task</tspan></text></g><g class="subtechnique T1204.001" transform="translate(15, 586.1818181818182)"><rect class="cell" height="73.27272727272728" width="71.36697247706422" fill="white" stroke="#6B7279"/><rect class="cell" height="73.27272727272728" width="3" transform="translate(-3, 0)" fill="#6B7279" stroke="#6B7279"/><text font-size="10.209123343527013" fill="black"><tspan x="4" y="32.88636363636364">Malicious</tspan><tspan x="4" y="47.38636363636364">Link</tspan></text></g><g class="subtechnique T1204.002" transform="translate(15, 659.4545454545455)"><rect class="cell" height="73.27272727272728" width="71.36697247706422" fill="white" stroke="#6B7279"/><rect class="cell" height="73.27272727272728" width="3" transform="translate(-3, 0)" fill="#6B7279" stroke="#6B7279"/><text font-size="10.209123343527013" fill="black"><tspan x="4" y="32.88636363636364">Malicious</tspan><tspan x="4" y="47.38636363636364">File</tspan></text></g></g><g class="tactic-label"><text font-size="12" fill="black" font-weight="bold"><tspan text-anchor="middle" x="43.18348623853211" y="40.13636363636364">Execution</tspan></text></g></g><g class="tactic persistence" transform="translate(191.92660550458714, 0)"><g class="techniques"><g class="technique T1547" transform="translate(0, 73.27272727272728)"><rect class="cell" height="73.27272727272728" width="86.36697247706422" fill="#c7e9c0" stroke="#6B7279"/><polygon class="sidebar" transform="translate(0, 73.27272727272728)" points="0,0 12,0 12,12" fill="#6B7279" visibility="visible"/><text font-size="12" fill="black"><tspan x="4" y="18.01136363636364">Boot or</tspan><tspan x="4" y="32.76136363636364">Logon</tspan><tspan x="4" y="47.51136363636364">Autostart</tspan><tspan x="4" y="62.26136363636364">Execution</tspan></text></g><g class="technique T1543" transform="translate(0, 219.8181818181818)"><rect class="cell" height="73.27272727272728" width="86.36697247706422" fill="#c7e9c0" stroke="#6B7279"/><polygon class="sidebar" transform="translate(0, 73.27272727272728)" points="0,0 12,0 12,12" fill="#6B7279" visibility="visible"/><text font-size="12" fill="black"><tspan x="4" y="18.01136363636364">Create or</tspan><tspan x="4" y="32.76136363636364">Modify</tspan><tspan x="4" y="47.51136363636364">System</tspan><tspan x="4" y="62.26136363636364">Process</tspan></text></g><g class="technique T1053" transform="translate(0, 366.3636363636364)"><rect class="cell" height="73.27272727272728" width="86.36697247706422" fill="#c7e9c0" stroke="#6B7279"/><polygon class="sidebar" transform="translate(0, 73.27272727272728)" points="0,0 12,0 12,12" fill="#6B7279" visibility="visible"/><text font-size="12" fill="black"><tspan x="4" y="32.88636363636364">Scheduled</tspan><tspan x="4" y="47.38636363636364">Task/Job</tspan></text></g><g class="technique T1078" transform="translate(0, 512.9090909090909)"><rect class="cell" height="73.27272727272728" width="86.36697247706422" fill="#c7e9c0" stroke="#6B7279"/><polygon class="sidebar" transform="translate(0, 73.27272727272728)" points="0,0 12,0 12,12" fill="#6B7279" visibility="visible"/><text font-size="12" fill="black"><tspan x="4" y="32.88636363636364">Valid</tspan><tspan x="4" y="47.38636363636364">Accounts</tspan></text></g></g><g class="subtechniques"><g class="subtechnique T1547.001" transform="translate(15, 146.54545454545456)"><rect class="cell" height="73.27272727272728" width="71.36697247706422" fill="white" stroke="#6B7279"/><rect class="cell" height="73.27272727272728" width="3" transform="translate(-3, 0)" fill="#6B7279" stroke="#6B7279"/><text font-size="11.48526376146789" fill="black"><tspan x="4" y="11.227272727272728">Registry</tspan><tspan x="4" y="25.681818181818187">Run Keys</tspan><tspan x="4" y="40.13636363636364">/</tspan><tspan x="4" y="54.5909090909091">Startup</tspan><tspan x="4" y="69.04545454545456">Folder</tspan></text></g><g class="subtechnique T1543.003" transform="translate(15, 293.0909090909091)"><rect class="cell" height="73.27272727272728" width="71.36697247706422" fill="white" stroke="#6B7279"/><rect class="cell" height="73.27272727272728" width="3" transform="translate(-3, 0)" fill="#6B7279" stroke="#6B7279"/><text font-size="12" fill="black"><tspan x="4" y="32.88636363636364">Windows</tspan><tspan x="4" y="47.38636363636364">Service</tspan></text></g><g class="subtechnique T1053.005" transform="translate(15, 439.6363636363636)"><rect class="cell" height="73.27272727272728" width="71.36697247706422" fill="white" stroke="#6B7279"/><rect class="cell" height="73.27272727272728" width="3" transform="translate(-3, 0)" fill="#6B7279" stroke="#6B7279"/><text font-size="10.209123343527013" fill="black"><tspan x="4" y="32.88636363636364">Scheduled</tspan><tspan x="4" y="47.38636363636364">Task</tspan></text></g><g class="subtechnique T1078.003" transform="translate(15, 586.1818181818182)"><rect class="cell" height="73.27272727272728" width="71.36697247706422" fill="white" stroke="#6B7279"/><rect class="cell" height="73.27272727272728" width="3" transform="translate(-3, 0)" fill="#6B7279" stroke="#6B7279"/><text font-size="11.48526376146789" fill="black"><tspan x="4" y="32.88636363636364">Local</tspan><tspan x="4" y="47.38636363636364">Accounts</tspan></text></g></g><g class="tactic-label"><text font-size="10.330191826522102" fill="black" font-weight="bold"><tspan text-anchor="middle" x="43.18348623853211" y="40.13636363636364">Persistence</tspan></text></g></g><g class="tactic privilege-escalation" transform="translate(287.88990825688074, 0)"><g class="techniques"><g class="technique T1547" transform="translate(0, 73.27272727272728)"><rect class="cell" height="73.27272727272728" width="86.36697247706422" fill="#c7e9c0" stroke="#6B7279"/><polygon class="sidebar" transform="translate(0, 73.27272727272728)" points="0,0 12,0 12,12" fill="#6B7279" visibility="visible"/><text font-size="12" fill="black"><tspan x="4" y="18.01136363636364">Boot or</tspan><tspan x="4" y="32.76136363636364">Logon</tspan><tspan x="4" y="47.51136363636364">Autostart</tspan><tspan x="4" y="62.26136363636364">Execution</tspan></text></g><g class="technique T1543" transform="translate(0, 219.8181818181818)"><rect class="cell" height="73.27272727272728" width="86.36697247706422" fill="#c7e9c0" stroke="#6B7279"/><polygon class="sidebar" transform="translate(0, 73.27272727272728)" points="0,0 12,0 12,12" fill="#6B7279" visibility="visible"/><text font-size="12" fill="black"><tspan x="4" y="18.01136363636364">Create or</tspan><tspan x="4" y="32.76136363636364">Modify</tspan><tspan x="4" y="47.51136363636364">System</tspan><tspan x="4" y="62.26136363636364">Process</tspan></text></g><g class="technique T1055" transform="translate(0, 366.3636363636364)"><rect class="cell" height="73.27272727272728" width="86.36697247706422" fill="#c7e9c0" stroke="#6B7279"/><polygon class="sidebar" transform="translate(0, 73.27272727272728)" points="0,0 12,0 12,12" fill="#6B7279" visibility="visible"/><text font-size="12" fill="black"><tspan x="4" y="32.88636363636364">Process</tspan><tspan x="4" y="47.38636363636364">Injection</tspan></text></g><g class="technique T1053" transform="translate(0, 512.9090909090909)"><rect class="cell" height="73.27272727272728" width="86.36697247706422" fill="#c7e9c0" stroke="#6B7279"/><polygon class="sidebar" transform="translate(0, 73.27272727272728)" points="0,0 12,0 12,12" fill="#6B7279" visibility="visible"/><text font-size="12" fill="black"><tspan x="4" y="32.88636363636364">Scheduled</tspan><tspan x="4" y="47.38636363636364">Task/Job</tspan></text></g><g class="technique T1078" transform="translate(0, 659.4545454545455)"><rect class="cell" height="73.27272727272728" width="86.36697247706422" fill="#c7e9c0" stroke="#6B7279"/><polygon class="sidebar" transform="translate(0, 73.27272727272728)" points="0,0 12,0 12,12" fill="#6B7279" visibility="visible"/><text font-size="12" fill="black"><tspan x="4" y="32.88636363636364">Valid</tspan><tspan x="4" y="47.38636363636364">Accounts</tspan></text></g></g><g class="subtechniques"><g class="subtechnique T1547.001" transform="translate(15, 146.54545454545456)"><rect class="cell" height="73.27272727272728" width="71.36697247706422" fill="white" stroke="#6B7279"/><rect class="cell" height="73.27272727272728" width="3" transform="translate(-3, 0)" fill="#6B7279" stroke="#6B7279"/><text font-size="11.48526376146789" fill="black"><tspan x="4" y="11.227272727272728">Registry</tspan><tspan x="4" y="25.681818181818187">Run Keys</tspan><tspan x="4" y="40.13636363636364">/</tspan><tspan x="4" y="54.5909090909091">Startup</tspan><tspan x="4" y="69.04545454545456">Folder</tspan></text></g><g class="subtechnique T1543.003" transform="translate(15, 293.0909090909091)"><rect class="cell" height="73.27272727272728" width="71.36697247706422" fill="white" stroke="#6B7279"/><rect class="cell" height="73.27272727272728" width="3" transform="translate(-3, 0)" fill="#6B7279" stroke="#6B7279"/><text font-size="12" fill="black"><tspan x="4" y="32.88636363636364">Windows</tspan><tspan x="4" y="47.38636363636364">Service</tspan></text></g><g class="subtechnique T1055.001" transform="translate(15, 439.6363636363636)"><rect class="cell" height="73.27272727272728" width="71.36697247706422" fill="white" stroke="#6B7279"/><rect class="cell" height="73.27272727272728" width="3" transform="translate(-3, 0)" fill="#6B7279" stroke="#6B7279"/><text font-size="7.656842507645259" fill="black"><tspan x="4" y="24.469696969696972">Dynamic-link</tspan><tspan x="4" y="39.13636363636364">Library</tspan><tspan x="4" y="53.803030303030305">Injection</tspan></text></g><g class="subtechnique T1053.005" transform="translate(15, 586.1818181818182)"><rect class="cell" height="73.27272727272728" width="71.36697247706422" fill="white" stroke="#6B7279"/><rect class="cell" height="73.27272727272728" width="3" transform="translate(-3, 0)" fill="#6B7279" stroke="#6B7279"/><text font-size="10.209123343527013" fill="black"><tspan x="4" y="32.88636363636364">Scheduled</tspan><tspan x="4" y="47.38636363636364">Task</tspan></text></g><g class="subtechnique T1078.003" transform="translate(15, 732.7272727272727)"><rect class="cell" height="73.27272727272728" width="71.36697247706422" fill="white" stroke="#6B7279"/><rect class="cell" height="73.27272727272728" width="3" transform="translate(-3, 0)" fill="#6B7279" stroke="#6B7279"/><text font-size="11.48526376146789" fill="black"><tspan x="4" y="32.88636363636364">Local</tspan><tspan x="4" y="47.38636363636364">Accounts</tspan></text></g></g><g class="tactic-label"><text font-size="11.363211009174313" fill="black" font-weight="bold"><tspan text-anchor="middle" x="43.18348623853211" y="32.88636363636364">Privilege</tspan><tspan text-anchor="middle" x="43.18348623853211" y="47.38636363636364">Escalation</tspan></text></g></g><g class="tactic defense-evasion" transform="translate(383.8532110091743, 0)"><g class="techniques"><g class="technique T1027" transform="translate(0, 73.27272727272728)"><rect class="cell" height="73.27272727272728" width="86.36697247706422" fill="#c7e9c0" stroke="#6B7279"/><polygon class="sidebar" transform="translate(0, 73.27272727272728)" points="0,0 12,0 12,12" fill="#6B7279" visibility="visible"/><text font-size="10.330191826522102" fill="black"><tspan x="4" y="25.469696969696972">Obfuscated</tspan><tspan x="4" y="40.13636363636364">Files or</tspan><tspan x="4" y="54.803030303030305">Information</tspan></text></g><g class="technique T1055" transform="translate(0, 219.8181818181818)"><rect class="cell" height="73.27272727272728" width="86.36697247706422" fill="#c7e9c0" stroke="#6B7279"/><polygon class="sidebar" transform="translate(0, 73.27272727272728)" points="0,0 12,0 12,12" fill="#6B7279" visibility="visible"/><text font-size="12" fill="black"><tspan x="4" y="32.88636363636364">Process</tspan><tspan x="4" y="47.38636363636364">Injection</tspan></text></g><g class="technique T1078" transform="translate(0, 366.3636363636364)"><rect class="cell" height="73.27272727272728" width="86.36697247706422" fill="#c7e9c0" stroke="#6B7279"/><polygon class="sidebar" transform="translate(0, 73.27272727272728)" points="0,0 12,0 12,12" fill="#6B7279" visibility="visible"/><text font-size="12" fill="black"><tspan x="4" y="32.88636363636364">Valid</tspan><tspan x="4" y="47.38636363636364">Accounts</tspan></text></g></g><g class="subtechniques"><g class="subtechnique T1027.002" transform="translate(15, 146.54545454545456)"><rect class="cell" height="73.27272727272728" width="71.36697247706422" fill="white" stroke="#6B7279"/><rect class="cell" height="73.27272727272728" width="3" transform="translate(-3, 0)" fill="#6B7279" stroke="#6B7279"/><text font-size="11.48526376146789" fill="black"><tspan x="4" y="32.88636363636364">Software</tspan><tspan x="4" y="47.38636363636364">Packing</tspan></text></g><g class="subtechnique T1055.001" transform="translate(15, 293.0909090909091)"><rect class="cell" height="73.27272727272728" width="71.36697247706422" fill="white" stroke="#6B7279"/><rect class="cell" height="73.27272727272728" width="3" transform="translate(-3, 0)" fill="#6B7279" stroke="#6B7279"/><text font-size="7.656842507645259" fill="black"><tspan x="4" y="24.469696969696972">Dynamic-link</tspan><tspan x="4" y="39.13636363636364">Library</tspan><tspan x="4" y="53.803030303030305">Injection</tspan></text></g><g class="subtechnique T1078.003" transform="translate(15, 439.6363636363636)"><rect class="cell" height="73.27272727272728" width="71.36697247706422" fill="white" stroke="#6B7279"/><rect class="cell" height="73.27272727272728" width="3" transform="translate(-3, 0)" fill="#6B7279" stroke="#6B7279"/><text font-size="11.48526376146789" fill="black"><tspan x="4" y="32.88636363636364">Local</tspan><tspan x="4" y="47.38636363636364">Accounts</tspan></text></g></g><g class="tactic-label"><text font-size="12" fill="black" font-weight="bold"><tspan text-anchor="middle" x="43.18348623853211" y="32.88636363636364">Defense</tspan><tspan text-anchor="middle" x="43.18348623853211" y="47.38636363636364">Evasion</tspan></text></g></g><g class="tactic credential-access" transform="translate(479.81651376146783, 0)"><g class="techniques"><g class="technique T1110" transform="translate(0, 73.27272727272728)"><rect class="cell" height="73.27272727272728" width="86.36697247706422" fill="#c7e9c0" stroke="#6B7279"/><polygon class="sidebar" transform="translate(0, 73.27272727272728)" points="0,0 12,0 12,12" fill="#6B7279" visibility="visible"/><text font-size="12" fill="black"><tspan x="4" y="32.88636363636364">Brute</tspan><tspan x="4" y="47.38636363636364">Force</tspan></text></g><g class="technique T1555" transform="translate(0, 219.8181818181818)"><rect class="cell" height="73.27272727272728" width="86.36697247706422" fill="#c7e9c0" stroke="#6B7279"/><polygon class="sidebar" transform="translate(0, 73.27272727272728)" points="0,0 12,0 12,12" fill="#6B7279" visibility="visible"/><text font-size="10.330191826522102" fill="black"><tspan x="4" y="18.01136363636364">Credentials</tspan><tspan x="4" y="32.76136363636364">from</tspan><tspan x="4" y="47.51136363636364">Password</tspan><tspan x="4" y="62.26136363636364">Stores</tspan></text></g><g class="technique T1040" transform="translate(0, 366.3636363636364)"><rect class="cell" height="73.27272727272728" width="86.36697247706422" fill="#c7e9c0" stroke="#6B7279"/><polygon class="sidebar" transform="translate(0, 73.27272727272728)" points="0,0 12,0 12,0" fill="#6B7279" visibility="hidden"/><text font-size="12" fill="black"><tspan x="4" y="32.88636363636364">Network</tspan><tspan x="4" y="47.38636363636364">Sniffing</tspan></text></g><g class="technique T1003" transform="translate(0, 439.6363636363636)"><rect class="cell" height="73.27272727272728" width="86.36697247706422" fill="#c7e9c0" stroke="#6B7279"/><polygon class="sidebar" transform="translate(0, 73.27272727272728)" points="0,0 12,0 12,12" fill="#6B7279" visibility="visible"/><text font-size="11.363211009174313" fill="black"><tspan x="4" y="25.469696969696972">OS</tspan><tspan x="4" y="40.13636363636364">Credential</tspan><tspan x="4" y="54.803030303030305">Dumping</tspan></text></g><g class="technique T1552" transform="translate(0, 586.1818181818182)"><rect class="cell" height="73.27272727272728" width="86.36697247706422" fill="#c7e9c0" stroke="#6B7279"/><polygon class="sidebar" transform="translate(0, 73.27272727272728)" points="0,0 12,0 12,12" fill="#6B7279" visibility="visible"/><text font-size="10.330191826522102" fill="black"><tspan x="4" y="32.88636363636364">Unsecured</tspan><tspan x="4" y="47.38636363636364">Credentials</tspan></text></g></g><g class="subtechniques"><g class="subtechnique T1110.001" transform="translate(15, 146.54545454545456)"><rect class="cell" height="73.27272727272728" width="71.36697247706422" fill="white" stroke="#6B7279"/><rect class="cell" height="73.27272727272728" width="3" transform="translate(-3, 0)" fill="#6B7279" stroke="#6B7279"/><text font-size="11.48526376146789" fill="black"><tspan x="4" y="32.88636363636364">Password</tspan><tspan x="4" y="47.38636363636364">Guessing</tspan></text></g><g class="subtechnique T1555.003" transform="translate(15, 293.0909090909091)"><rect class="cell" height="73.27272727272728" width="71.36697247706422" fill="white" stroke="#6B7279"/><rect class="cell" height="73.27272727272728" width="3" transform="translate(-3, 0)" fill="#6B7279" stroke="#6B7279"/><text font-size="8.352919099249375" fill="black"><tspan x="4" y="24.469696969696972">Credentials</tspan><tspan x="4" y="39.13636363636364">from Web</tspan><tspan x="4" y="53.803030303030305">Browsers</tspan></text></g><g class="subtechnique T1003.001" transform="translate(15, 512.9090909090909)"><rect class="cell" height="73.27272727272728" width="71.36697247706422" fill="white" stroke="#6B7279"/><rect class="cell" height="73.27272727272728" width="3" transform="translate(-3, 0)" fill="#6B7279" stroke="#6B7279"/><text font-size="12" fill="black"><tspan x="4" y="32.88636363636364">LSASS</tspan><tspan x="4" y="47.38636363636364">Memory</tspan></text></g><g class="subtechnique T1552.001" transform="translate(15, 659.4545454545455)"><rect class="cell" height="73.27272727272728" width="71.36697247706422" fill="white" stroke="#6B7279"/><rect class="cell" height="73.27272727272728" width="3" transform="translate(-3, 0)" fill="#6B7279" stroke="#6B7279"/><text font-size="8.352919099249375" fill="black"><tspan x="4" y="31.88636363636364">Credentials</tspan><tspan x="4" y="46.38636363636364">In Files</tspan></text></g></g><g class="tactic-label"><text font-size="11.363211009174313" fill="black" font-weight="bold"><tspan text-anchor="middle" x="43.18348623853211" y="32.88636363636364">Credential</tspan><tspan text-anchor="middle" x="43.18348623853211" y="47.38636363636364">Access</tspan></text></g></g><g class="tactic discovery" transform="translate(575.7798165137615, 0)"><g class="techniques"><g class="technique T1087" transform="translate(0, 73.27272727272728)"><rect class="cell" height="73.27272727272728" width="86.36697247706422" fill="#c7e9c0" stroke="#6B7279"/><polygon class="sidebar" transform="translate(0, 73.27272727272728)" points="0,0 12,0 12,12" fill="#6B7279" visibility="visible"/><text font-size="12" fill="black"><tspan x="4" y="32.88636363636364">Account</tspan><tspan x="4" y="47.38636363636364">Discovery</tspan></text></g><g class="technique T1040" transform="translate(0, 219.8181818181818)"><rect class="cell" height="73.27272727272728" width="86.36697247706422" fill="#c7e9c0" stroke="#6B7279"/><polygon class="sidebar" transform="translate(0, 73.27272727272728)" points="0,0 12,0 12,0" fill="#6B7279" visibility="hidden"/><text font-size="12" fill="black"><tspan x="4" y="32.88636363636364">Network</tspan><tspan x="4" y="47.38636363636364">Sniffing</tspan></text></g><g class="technique T1057" transform="translate(0, 293.0909090909091)"><rect class="cell" height="73.27272727272728" width="86.36697247706422" fill="#c7e9c0" stroke="#6B7279"/><polygon class="sidebar" transform="translate(0, 73.27272727272728)" points="0,0 12,0 12,0" fill="#6B7279" visibility="hidden"/><text font-size="12" fill="black"><tspan x="4" y="32.88636363636364">Process</tspan><tspan x="4" y="47.38636363636364">Discovery</tspan></text></g></g><g class="subtechniques"><g class="subtechnique T1087.003" transform="translate(15, 146.54545454545456)"><rect class="cell" height="73.27272727272728" width="71.36697247706422" fill="white" stroke="#6B7279"/><rect class="cell" height="73.27272727272728" width="3" transform="translate(-3, 0)" fill="#6B7279" stroke="#6B7279"/><text font-size="12" fill="black"><tspan x="4" y="32.88636363636364">Email</tspan><tspan x="4" y="47.38636363636364">Account</tspan></text></g></g><g class="tactic-label"><text font-size="12" fill="black" font-weight="bold"><tspan text-anchor="middle" x="43.18348623853211" y="40.13636363636364">Discovery</tspan></text></g></g><g class="tactic lateral-movement" transform="translate(671.743119266055, 0)"><g class="techniques"><g class="technique T1210" transform="translate(0, 73.27272727272728)"><rect class="cell" height="73.27272727272728" width="86.36697247706422" fill="#c7e9c0" stroke="#6B7279"/><polygon class="sidebar" transform="translate(0, 73.27272727272728)" points="0,0 12,0 12,0" fill="#6B7279" visibility="hidden"/><text font-size="9.46934250764526" fill="black"><tspan x="4" y="24.469696969696972">Exploitation</tspan><tspan x="4" y="39.13636363636364">of Remote</tspan><tspan x="4" y="53.803030303030305">Services</tspan></text></g><g class="technique T1021" transform="translate(0, 146.54545454545456)"><rect class="cell" height="73.27272727272728" width="86.36697247706422" fill="#c7e9c0" stroke="#6B7279"/><polygon class="sidebar" transform="translate(0, 73.27272727272728)" points="0,0 12,0 12,12" fill="#6B7279" visibility="visible"/><text font-size="12" fill="black"><tspan x="4" y="32.88636363636364">Remote</tspan><tspan x="4" y="47.38636363636364">Services</tspan></text></g></g><g class="subtechniques"><g class="subtechnique T1021.002" transform="translate(15, 219.8181818181818)"><rect class="cell" height="73.27272727272728" width="71.36697247706422" fill="white" stroke="#6B7279"/><rect class="cell" height="73.27272727272728" width="3" transform="translate(-3, 0)" fill="#6B7279" stroke="#6B7279"/><text font-size="8.352919099249375" fill="black"><tspan x="4" y="24.469696969696972">SMB/Windows</tspan><tspan x="4" y="39.13636363636364">Admin</tspan><tspan x="4" y="53.803030303030305">Shares</tspan></text></g></g><g class="tactic-label"><text font-size="12" fill="black" font-weight="bold"><tspan text-anchor="middle" x="43.18348623853211" y="32.88636363636364">Lateral</tspan><tspan text-anchor="middle" x="43.18348623853211" y="47.38636363636364">Movement</tspan></text></g></g><g class="tactic collection" transform="translate(767.7064220183486, 0)"><g class="techniques"><g class="technique T1560" transform="translate(0, 73.27272727272728)"><rect class="cell" height="73.27272727272728" width="86.36697247706422" fill="#c7e9c0" stroke="#6B7279"/><polygon class="sidebar" transform="translate(0, 73.27272727272728)" points="0,0 12,0 12,0" fill="#6B7279" visibility="hidden"/><text font-size="12" fill="black"><tspan x="4" y="25.469696969696972">Archive</tspan><tspan x="4" y="40.13636363636364">Collected</tspan><tspan x="4" y="54.803030303030305">Data</tspan></text></g><g class="technique T1114" transform="translate(0, 146.54545454545456)"><rect class="cell" height="73.27272727272728" width="86.36697247706422" fill="#c7e9c0" stroke="#6B7279"/><polygon class="sidebar" transform="translate(0, 73.27272727272728)" points="0,0 12,0 12,12" fill="#6B7279" visibility="visible"/><text font-size="11.363211009174313" fill="black"><tspan x="4" y="32.88636363636364">Email</tspan><tspan x="4" y="47.38636363636364">Collection</tspan></text></g></g><g class="subtechniques"><g class="subtechnique T1114.001" transform="translate(15, 219.8181818181818)"><rect class="cell" height="73.27272727272728" width="71.36697247706422" fill="white" stroke="#6B7279"/><rect class="cell" height="73.27272727272728" width="3" transform="translate(-3, 0)" fill="#6B7279" stroke="#6B7279"/><text font-size="9.188211009174312" fill="black"><tspan x="4" y="24.469696969696972">Local</tspan><tspan x="4" y="39.13636363636364">Email</tspan><tspan x="4" y="53.803030303030305">Collection</tspan></text></g></g><g class="tactic-label"><text font-size="11.363211009174313" fill="black" font-weight="bold"><tspan text-anchor="middle" x="43.18348623853211" y="40.13636363636364">Collection</tspan></text></g></g><g class="tactic command-and-control" transform="translate(863.6697247706421, 0)"><g class="techniques"><g class="technique T1573" transform="translate(0, 73.27272727272728)"><rect class="cell" height="73.27272727272728" width="86.36697247706422" fill="#c7e9c0" stroke="#6B7279"/><polygon class="sidebar" transform="translate(0, 73.27272727272728)" points="0,0 12,0 12,12" fill="#6B7279" visibility="visible"/><text font-size="12" fill="black"><tspan x="4" y="32.88636363636364">Encrypted</tspan><tspan x="4" y="47.38636363636364">Channel</tspan></text></g><g class="technique T1571" transform="translate(0, 219.8181818181818)"><rect class="cell" height="73.27272727272728" width="86.36697247706422" fill="#c7e9c0" stroke="#6B7279"/><polygon class="sidebar" transform="translate(0, 73.27272727272728)" points="0,0 12,0 12,0" fill="#6B7279" visibility="hidden"/><text font-size="9.46934250764526" fill="black"><tspan x="4" y="31.88636363636364">Non-Standard</tspan><tspan x="4" y="46.38636363636364">Port</tspan></text></g></g><g class="subtechniques"><g class="subtechnique T1573.002" transform="translate(15, 146.54545454545456)"><rect class="cell" height="73.27272727272728" width="71.36697247706422" fill="white" stroke="#6B7279"/><rect class="cell" height="73.27272727272728" width="3" transform="translate(-3, 0)" fill="#6B7279" stroke="#6B7279"/><text font-size="7.656842507645259" fill="black"><tspan x="4" y="31.88636363636364">Asymmetric</tspan><tspan x="4" y="46.38636363636364">Cryptography</tspan></text></g></g><g class="tactic-label"><text font-size="12" fill="black" font-weight="bold"><tspan text-anchor="middle" x="43.18348623853211" y="25.469696969696972">Command</tspan><tspan text-anchor="middle" x="43.18348623853211" y="40.13636363636364">and</tspan><tspan text-anchor="middle" x="43.18348623853211" y="54.803030303030305">Control</tspan></text></g></g><g class="tactic exfiltration" transform="translate(959.6330275229357, 0)"><g class="techniques"><g class="technique T1041" transform="translate(0, 73.27272727272728)"><rect class="cell" height="73.27272727272728" width="86.36697247706422" fill="#c7e9c0" stroke="#6B7279"/><polygon class="sidebar" transform="translate(0, 73.27272727272728)" points="0,0 12,0 12,0" fill="#6B7279" visibility="hidden"/><text font-size="9.46934250764526" fill="black"><tspan x="4" y="24.469696969696972">Exfiltration</tspan><tspan x="4" y="39.13636363636364">Over C2</tspan><tspan x="4" y="53.803030303030305">Channel</tspan></text></g></g><g class="subtechniques"/><g class="tactic-label"><text font-size="9.46934250764526" fill="black" font-weight="bold"><tspan text-anchor="middle" x="43.18348623853211" y="39.13636363636364">Exfiltration</tspan></text></g></g></g></g></g></svg>