<?xml version="1.0" standalone="no"?>
<svg width="1700.7187500000002" height="755.875" xmlns="http://www.w3.org/2000/svg" id="svgvm0"><g transform="translate(5,5)" style="font-family: sans-serif;"><g transform="translate(0,1)"><g><g class="tactic initial-access" transform="translate(0, 0)"><g class="techniques"><g class="technique T1566" transform="translate(0, 67.80681818181819)"><rect class="cell" height="67.80681818181819" width="139.60063073394497" fill="#dadaeb" stroke="#6B7279"/><polygon class="sidebar" transform="translate(0, 67.80681818181819)" points="0,0 12,0 12,12" fill="#6B7279" visibility="visible"/><text font-size="12" fill="black"><tspan x="4" y="37.40340909090909">Phishing</tspan></text></g><g class="technique T1078" transform="translate(0, 271.22727272727275)"><rect class="cell" height="67.80681818181819" width="139.60063073394497" fill="#dadaeb" stroke="#6B7279"/><polygon class="sidebar" transform="translate(0, 67.80681818181819)" points="0,0 12,0 12,12" fill="#6B7279" visibility="visible"/><text font-size="12" fill="black"><tspan x="4" y="37.40340909090909">Valid Accounts</tspan></text></g></g><g class="subtechniques"><g class="subtechnique T1566.001" transform="translate(15, 135.61363636363637)"><rect class="cell" height="67.80681818181819" width="124.60063073394497" fill="white" stroke="#6B7279"/><rect class="cell" height="67.80681818181819" width="3" transform="translate(-3, 0)" fill="#6B7279" stroke="#6B7279"/><text font-size="12" fill="black"><tspan x="4" y="30.153409090909093">Spearphishing</tspan><tspan x="4" y="44.65340909090909">Attachment</tspan></text></g><g class="subtechnique T1566.002" transform="translate(15, 203.42045454545453)"><rect class="cell" height="67.80681818181819" width="124.60063073394497" fill="white" stroke="#6B7279"/><rect class="cell" height="67.80681818181819" width="3" transform="translate(-3, 0)" fill="#6B7279" stroke="#6B7279"/><text font-size="12" fill="black"><tspan x="4" y="30.153409090909093">Spearphishing</tspan><tspan x="4" y="44.65340909090909">Link</tspan></text></g><g class="subtechnique T1078.003" transform="translate(15, 339.0340909090909)"><rect class="cell" height="67.80681818181819" width="124.60063073394497" fill="white" stroke="#6B7279"/><rect class="cell" height="67.80681818181819" width="3" transform="translate(-3, 0)" fill="#6B7279" stroke="#6B7279"/><text font-size="12" fill="black"><tspan x="4" y="37.40340909090909">Local Accounts</tspan></text></g></g><g class="tactic-label"><text font-size="12" fill="black" font-weight="bold"><tspan text-anchor="middle" x="69.80031536697248" y="37.40340909090909">Initial Access</tspan></text></g></g><g class="tactic execution" transform="translate(155.11181192660553, 0)"><g class="techniques"><g class="technique T1059" transform="translate(0, 67.80681818181819)"><rect class="cell" height="67.80681818181819" width="139.60063073394497" fill="#dadaeb" stroke="#6B7279"/><polygon class="sidebar" transform="translate(0, 67.80681818181819)" points="0,0 12,0 12,12" fill="#6B7279" visibility="visible"/><text font-size="12" fill="black"><tspan x="4" y="22.736742424242426">Command and</tspan><tspan x="4" y="37.40340909090909">Scripting</tspan><tspan x="4" y="52.07007575757576">Interpreter</tspan></text></g><g class="technique T1053" transform="translate(0, 339.0340909090909)"><rect class="cell" height="67.80681818181819" width="139.60063073394497" fill="#dadaeb" stroke="#6B7279"/><polygon class="sidebar" transform="translate(0, 67.80681818181819)" points="0,0 12,0 12,12" fill="#6B7279" visibility="visible"/><text font-size="12" fill="black"><tspan x="4" y="30.153409090909093">Scheduled</tspan><tspan x="4" y="44.65340909090909">Task/Job</tspan></text></g><g class="technique T1204" transform="translate(0, 474.64772727272725)"><rect class="cell" height="67.80681818181819" width="139.60063073394497" fill="#dadaeb" stroke="#6B7279"/><polygon class="sidebar" transform="translate(0, 67.80681818181819)" points="0,0 12,0 12,12" fill="#6B7279" visibility="visible"/><text font-size="12" fill="black"><tspan x="4" y="37.40340909090909">User Execution</tspan></text></g><g class="technique T1047" transform="translate(0, 678.0681818181818)"><rect class="cell" height="67.80681818181819" width="139.60063073394497" fill="#dadaeb" stroke="#6B7279"/><polygon class="sidebar" transform="translate(0, 67.80681818181819)" points="0,0 12,0 12,0" fill="#6B7279" visibility="hidden"/><text font-size="12" fill="black"><tspan x="4" y="22.736742424242426">Windows</tspan><tspan x="4" y="37.40340909090909">Management</tspan><tspan x="4" y="52.07007575757576">Instrumentation</tspan></text></g></g><g class="subtechniques"><g class="subtechnique T1059.001" transform="translate(15, 135.61363636363637)"><rect class="cell" height="67.80681818181819" width="124.60063073394497" fill="white" stroke="#6B7279"/><rect class="cell" height="67.80681818181819" width="3" transform="translate(-3, 0)" fill="#6B7279" stroke="#6B7279"/><text font-size="12" fill="black"><tspan x="4" y="37.40340909090909">PowerShell</tspan></text></g><g class="subtechnique T1059.003" transform="translate(15, 203.42045454545453)"><rect class="cell" height="67.80681818181819" width="124.60063073394497" fill="white" stroke="#6B7279"/><rect class="cell" height="67.80681818181819" width="3" transform="translate(-3, 0)" fill="#6B7279" stroke="#6B7279"/><text font-size="12" fill="black"><tspan x="4" y="30.153409090909093">Windows</tspan><tspan x="4" y="44.65340909090909">Command Shell</tspan></text></g><g class="subtechnique T1059.005" transform="translate(15, 271.22727272727275)"><rect class="cell" height="67.80681818181819" width="124.60063073394497" fill="white" stroke="#6B7279"/><rect class="cell" height="67.80681818181819" width="3" transform="translate(-3, 0)" fill="#6B7279" stroke="#6B7279"/><text font-size="12" fill="black"><tspan x="4" y="37.40340909090909">Visual Basic</tspan></text></g><g class="subtechnique T1053.005" transform="translate(15, 406.84090909090907)"><rect class="cell" height="67.80681818181819" width="124.60063073394497" fill="white" stroke="#6B7279"/><rect class="cell" height="67.80681818181819" width="3" transform="translate(-3, 0)" fill="#6B7279" stroke="#6B7279"/><text font-size="12" fill="black"><tspan x="4" y="37.40340909090909">Scheduled Task</tspan></text></g><g class="subtechnique T1204.001" transform="translate(15, 542.4545454545455)"><rect class="cell" height="67.80681818181819" width="124.60063073394497" fill="white" stroke="#6B7279"/><rect class="cell" height="67.80681818181819" width="3" transform="translate(-3, 0)" fill="#6B7279" stroke="#6B7279"/><text font-size="12" fill="black"><tspan x="4" y="37.40340909090909">Malicious Link</tspan></text></g><g class="subtechnique T1204.002" transform="translate(15, 610.2613636363636)"><rect class="cell" height="67.80681818181819" width="124.60063073394497" fill="white" stroke="#6B7279"/><rect class="cell" height="67.80681818181819" width="3" transform="translate(-3, 0)" fill="#6B7279" stroke="#6B7279"/><text font-size="12" fill="black"><tspan x="4" y="37.40340909090909">Malicious File</tspan></text></g></g><g class="tactic-label"><text font-size="12" fill="black" font-weight="bold"><tspan text-anchor="middle" x="69.80031536697248" y="37.40340909090909">Execution</tspan></text></g></g><g class="tactic persistence" transform="translate(310.22362385321105, 0)"><g class="techniques"><g class="technique T1547" transform="translate(0, 67.80681818181819)"><rect class="cell" height="67.80681818181819" width="139.60063073394497" fill="#dadaeb" stroke="#6B7279"/><polygon class="sidebar" transform="translate(0, 67.80681818181819)" points="0,0 12,0 12,12" fill="#6B7279" visibility="visible"/><text font-size="12" fill="black"><tspan x="4" y="22.736742424242426">Boot or Logon</tspan><tspan x="4" y="37.40340909090909">Autostart</tspan><tspan x="4" y="52.07007575757576">Execution</tspan></text></g><g class="technique T1543" transform="translate(0, 203.42045454545453)"><rect class="cell" height="67.80681818181819" width="139.60063073394497" fill="#dadaeb" stroke="#6B7279"/><polygon class="sidebar" transform="translate(0, 67.80681818181819)" points="0,0 12,0 12,12" fill="#6B7279" visibility="visible"/><text font-size="12" fill="black"><tspan x="4" y="22.736742424242426">Create or</tspan><tspan x="4" y="37.40340909090909">Modify System</tspan><tspan x="4" y="52.07007575757576">Process</tspan></text></g><g class="technique T1053" transform="translate(0, 339.0340909090909)"><rect class="cell" height="67.80681818181819" width="139.60063073394497" fill="#dadaeb" stroke="#6B7279"/><polygon class="sidebar" transform="translate(0, 67.80681818181819)" points="0,0 12,0 12,12" fill="#6B7279" visibility="visible"/><text font-size="12" fill="black"><tspan x="4" y="30.153409090909093">Scheduled</tspan><tspan x="4" y="44.65340909090909">Task/Job</tspan></text></g><g class="technique T1078" transform="translate(0, 474.64772727272725)"><rect class="cell" height="67.80681818181819" width="139.60063073394497" fill="#dadaeb" stroke="#6B7279"/><polygon class="sidebar" transform="translate(0, 67.80681818181819)" points="0,0 12,0 12,12" fill="#6B7279" visibility="visible"/><text font-size="12" fill="black"><tspan x="4" y="37.40340909090909">Valid Accounts</tspan></text></g></g><g class="subtechniques"><g class="subtechnique T1547.001" transform="translate(15, 135.61363636363637)"><rect class="cell" height="67.80681818181819" width="124.60063073394497" fill="white" stroke="#6B7279"/><rect class="cell" height="67.80681818181819" width="3" transform="translate(-3, 0)" fill="#6B7279" stroke="#6B7279"/><text font-size="12" fill="black"><tspan x="4" y="22.736742424242426">Registry Run</tspan><tspan x="4" y="37.40340909090909">Keys / Startup</tspan><tspan x="4" y="52.07007575757576">Folder</tspan></text></g><g class="subtechnique T1543.003" transform="translate(15, 271.22727272727275)"><rect class="cell" height="67.80681818181819" width="124.60063073394497" fill="white" stroke="#6B7279"/><rect class="cell" height="67.80681818181819" width="3" transform="translate(-3, 0)" fill="#6B7279" stroke="#6B7279"/><text font-size="12" fill="black"><tspan x="4" y="30.153409090909093">Windows</tspan><tspan x="4" y="44.65340909090909">Service</tspan></text></g><g class="subtechnique T1053.005" transform="translate(15, 406.84090909090907)"><rect class="cell" height="67.80681818181819" width="124.60063073394497" fill="white" stroke="#6B7279"/><rect class="cell" height="67.80681818181819" width="3" transform="translate(-3, 0)" fill="#6B7279" stroke="#6B7279"/><text font-size="12" fill="black"><tspan x="4" y="37.40340909090909">Scheduled Task</tspan></text></g><g class="subtechnique T1078.003" transform="translate(15, 542.4545454545455)"><rect class="cell" height="67.80681818181819" width="124.60063073394497" fill="white" stroke="#6B7279"/><rect class="cell" height="67.80681818181819" width="3" transform="translate(-3, 0)" fill="#6B7279" stroke="#6B7279"/><text font-size="12" fill="black"><tspan x="4" y="37.40340909090909">Local Accounts</tspan></text></g></g><g class="tactic-label"><text font-size="12" fill="black" font-weight="bold"><tspan text-anchor="middle" x="69.80031536697248" y="37.40340909090909">Persistence</tspan></text></g></g><g class="tactic privilege-escalation" transform="translate(465.3354357798166, 0)"><g class="techniques"><g class="technique T1547" transform="translate(0, 67.80681818181819)"><rect class="cell" height="67.80681818181819" width="139.60063073394497" fill="#dadaeb" stroke="#6B7279"/><polygon class="sidebar" transform="translate(0, 67.80681818181819)" points="0,0 12,0 12,12" fill="#6B7279" visibility="visible"/><text font-size="12" fill="black"><tspan x="4" y="22.736742424242426">Boot or Logon</tspan><tspan x="4" y="37.40340909090909">Autostart</tspan><tspan x="4" y="52.07007575757576">Execution</tspan></text></g><g class="technique T1543" transform="translate(0, 203.42045454545453)"><rect class="cell" height="67.80681818181819" width="139.60063073394497" fill="#dadaeb" stroke="#6B7279"/><polygon class="sidebar" transform="translate(0, 67.80681818181819)" points="0,0 12,0 12,12" fill="#6B7279" visibility="visible"/><text font-size="12" fill="black"><tspan x="4" y="22.736742424242426">Create or</tspan><tspan x="4" y="37.40340909090909">Modify System</tspan><tspan x="4" y="52.07007575757576">Process</tspan></text></g><g class="technique T1055" transform="translate(0, 339.0340909090909)"><rect class="cell" height="67.80681818181819" width="139.60063073394497" fill="#dadaeb" stroke="#6B7279"/><polygon class="sidebar" transform="translate(0, 67.80681818181819)" points="0,0 12,0 12,12" fill="#6B7279" visibility="visible"/><text font-size="12" fill="black"><tspan x="4" y="30.153409090909093">Process</tspan><tspan x="4" y="44.65340909090909">Injection</tspan></text></g><g class="technique T1053" transform="translate(0, 474.64772727272725)"><rect class="cell" height="67.80681818181819" width="139.60063073394497" fill="#dadaeb" stroke="#6B7279"/><polygon class="sidebar" transform="translate(0, 67.80681818181819)" points="0,0 12,0 12,12" fill="#6B7279" visibility="visible"/><text font-size="12" fill="black"><tspan x="4" y="30.153409090909093">Scheduled</tspan><tspan x="4" y="44.65340909090909">Task/Job</tspan></text></g><g class="technique T1078" transform="translate(0, 610.2613636363636)"><rect class="cell" height="67.80681818181819" width="139.60063073394497" fill="#dadaeb" stroke="#6B7279"/><polygon class="sidebar" transform="translate(0, 67.80681818181819)" points="0,0 12,0 12,12" fill="#6B7279" visibility="visible"/><text font-size="12" fill="black"><tspan x="4" y="37.40340909090909">Valid Accounts</tspan></text></g></g><g class="subtechniques"><g class="subtechnique T1547.001" transform="translate(15, 135.61363636363637)"><rect class="cell" height="67.80681818181819" width="124.60063073394497" fill="white" stroke="#6B7279"/><rect class="cell" height="67.80681818181819" width="3" transform="translate(-3, 0)" fill="#6B7279" stroke="#6B7279"/><text font-size="12" fill="black"><tspan x="4" y="22.736742424242426">Registry Run</tspan><tspan x="4" y="37.40340909090909">Keys / Startup</tspan><tspan x="4" y="52.07007575757576">Folder</tspan></text></g><g class="subtechnique T1543.003" transform="translate(15, 271.22727272727275)"><rect class="cell" height="67.80681818181819" width="124.60063073394497" fill="white" stroke="#6B7279"/><rect class="cell" height="67.80681818181819" width="3" transform="translate(-3, 0)" fill="#6B7279" stroke="#6B7279"/><text font-size="12" fill="black"><tspan x="4" y="30.153409090909093">Windows</tspan><tspan x="4" y="44.65340909090909">Service</tspan></text></g><g class="subtechnique T1055.001" transform="translate(15, 406.84090909090907)"><rect class="cell" height="67.80681818181819" width="124.60063073394497" fill="white" stroke="#6B7279"/><rect class="cell" height="67.80681818181819" width="3" transform="translate(-3, 0)" fill="#6B7279" stroke="#6B7279"/><text font-size="12" fill="black"><tspan x="4" y="22.736742424242426">Dynamic-link</tspan><tspan x="4" y="37.40340909090909">Library</tspan><tspan x="4" y="52.07007575757576">Injection</tspan></text></g><g class="subtechnique T1053.005" transform="translate(15, 542.4545454545455)"><rect class="cell" height="67.80681818181819" width="124.60063073394497" fill="white" stroke="#6B7279"/><rect class="cell" height="67.80681818181819" width="3" transform="translate(-3, 0)" fill="#6B7279" stroke="#6B7279"/><text font-size="12" fill="black"><tspan x="4" y="37.40340909090909">Scheduled Task</tspan></text></g><g class="subtechnique T1078.003" transform="translate(15, 678.0681818181818)"><rect class="cell" height="67.80681818181819" width="124.60063073394497" fill="white" stroke="#6B7279"/><rect class="cell" height="67.80681818181819" width="3" transform="translate(-3, 0)" fill="#6B7279" stroke="#6B7279"/><text font-size="12" fill="black"><tspan x="4" y="37.40340909090909">Local Accounts</tspan></text></g></g><g class="tactic-label"><text font-size="12" fill="black" font-weight="bold"><tspan text-anchor="middle" x="69.80031536697248" y="30.153409090909093">Privilege</tspan><tspan text-anchor="middle" x="69.80031536697248" y="44.65340909090909">Escalation</tspan></text></g></g><g class="tactic defense-evasion" transform="translate(620.4472477064221, 0)"><g class="techniques"><g class="technique T1027" transform="translate(0, 67.80681818181819)"><rect class="cell" height="67.80681818181819" width="139.60063073394497" fill="#dadaeb" stroke="#6B7279"/><polygon class="sidebar" transform="translate(0, 67.80681818181819)" points="0,0 12,0 12,12" fill="#6B7279" visibility="visible"/><text font-size="12" fill="black"><tspan x="4" y="22.736742424242426">Obfuscated</tspan><tspan x="4" y="37.40340909090909">Files or</tspan><tspan x="4" y="52.07007575757576">Information</tspan></text></g><g class="technique T1055" transform="translate(0, 203.42045454545453)"><rect class="cell" height="67.80681818181819" width="139.60063073394497" fill="#dadaeb" stroke="#6B7279"/><polygon class="sidebar" transform="translate(0, 67.80681818181819)" points="0,0 12,0 12,12" fill="#6B7279" visibility="visible"/><text font-size="12" fill="black"><tspan x="4" y="30.153409090909093">Process</tspan><tspan x="4" y="44.65340909090909">Injection</tspan></text></g><g class="technique T1078" transform="translate(0, 339.0340909090909)"><rect class="cell" height="67.80681818181819" width="139.60063073394497" fill="#dadaeb" stroke="#6B7279"/><polygon class="sidebar" transform="translate(0, 67.80681818181819)" points="0,0 12,0 12,12" fill="#6B7279" visibility="visible"/><text font-size="12" fill="black"><tspan x="4" y="37.40340909090909">Valid Accounts</tspan></text></g></g><g class="subtechniques"><g class="subtechnique T1027.002" transform="translate(15, 135.61363636363637)"><rect class="cell" height="67.80681818181819" width="124.60063073394497" fill="white" stroke="#6B7279"/><rect class="cell" height="67.80681818181819" width="3" transform="translate(-3, 0)" fill="#6B7279" stroke="#6B7279"/><text font-size="12" fill="black"><tspan x="4" y="30.153409090909093">Software</tspan><tspan x="4" y="44.65340909090909">Packing</tspan></text></g><g class="subtechnique T1055.001" transform="translate(15, 271.22727272727275)"><rect class="cell" height="67.80681818181819" width="124.60063073394497" fill="white" stroke="#6B7279"/><rect class="cell" height="67.80681818181819" width="3" transform="translate(-3, 0)" fill="#6B7279" stroke="#6B7279"/><text font-size="12" fill="black"><tspan x="4" y="22.736742424242426">Dynamic-link</tspan><tspan x="4" y="37.40340909090909">Library</tspan><tspan x="4" y="52.07007575757576">Injection</tspan></text></g><g class="subtechnique T1078.003" transform="translate(15, 406.84090909090907)"><rect class="cell" height="67.80681818181819" width="124.60063073394497" fill="white" stroke="#6B7279"/><rect class="cell" height="67.80681818181819" width="3" transform="translate(-3, 0)" fill="#6B7279" stroke="#6B7279"/><text font-size="12" fill="black"><tspan x="4" y="37.40340909090909">Local Accounts</tspan></text></g></g><g class="tactic-label"><text font-size="12" fill="black" font-weight="bold"><tspan text-anchor="middle" x="69.80031536697248" y="37.40340909090909">Defense Evasion</tspan></text></g></g><g class="tactic credential-access" transform="translate(775.5590596330276, 0)"><g class="techniques"><g class="technique T1110" transform="translate(0, 67.80681818181819)"><rect class="cell" height="67.80681818181819" width="139.60063073394497" fill="#dadaeb" stroke="#6B7279"/><polygon class="sidebar" transform="translate(0, 67.80681818181819)" points="0,0 12,0 12,12" fill="#6B7279" visibility="visible"/><text font-size="12" fill="black"><tspan x="4" y="37.40340909090909">Brute Force</tspan></text></g><g class="technique T1555" transform="translate(0, 203.42045454545453)"><rect class="cell" height="67.80681818181819" width="139.60063073394497" fill="#dadaeb" stroke="#6B7279"/><polygon class="sidebar" transform="translate(0, 67.80681818181819)" points="0,0 12,0 12,12" fill="#6B7279" visibility="visible"/><text font-size="12" fill="black"><tspan x="4" y="22.736742424242426">Credentials</tspan><tspan x="4" y="37.40340909090909">from Password</tspan><tspan x="4" y="52.07007575757576">Stores</tspan></text></g><g class="technique T1040" transform="translate(0, 339.0340909090909)"><rect class="cell" height="67.80681818181819" width="139.60063073394497" fill="#dadaeb" stroke="#6B7279"/><polygon class="sidebar" transform="translate(0, 67.80681818181819)" points="0,0 12,0 12,0" fill="#6B7279" visibility="hidden"/><text font-size="12" fill="black"><tspan x="4" y="30.153409090909093">Network</tspan><tspan x="4" y="44.65340909090909">Sniffing</tspan></text></g><g class="technique T1003" transform="translate(0, 406.84090909090907)"><rect class="cell" height="67.80681818181819" width="139.60063073394497" fill="#dadaeb" stroke="#6B7279"/><polygon class="sidebar" transform="translate(0, 67.80681818181819)" points="0,0 12,0 12,12" fill="#6B7279" visibility="visible"/><text font-size="12" fill="black"><tspan x="4" y="30.153409090909093">OS Credential</tspan><tspan x="4" y="44.65340909090909">Dumping</tspan></text></g><g class="technique T1552" transform="translate(0, 542.4545454545455)"><rect class="cell" height="67.80681818181819" width="139.60063073394497" fill="#dadaeb" stroke="#6B7279"/><polygon class="sidebar" transform="translate(0, 67.80681818181819)" points="0,0 12,0 12,12" fill="#6B7279" visibility="visible"/><text font-size="12" fill="black"><tspan x="4" y="30.153409090909093">Unsecured</tspan><tspan x="4" y="44.65340909090909">Credentials</tspan></text></g></g><g class="subtechniques"><g class="subtechnique T1110.001" transform="translate(15, 135.61363636363637)"><rect class="cell" height="67.80681818181819" width="124.60063073394497" fill="white" stroke="#6B7279"/><rect class="cell" height="67.80681818181819" width="3" transform="translate(-3, 0)" fill="#6B7279" stroke="#6B7279"/><text font-size="12" fill="black"><tspan x="4" y="30.153409090909093">Password</tspan><tspan x="4" y="44.65340909090909">Guessing</tspan></text></g><g class="subtechnique T1555.003" transform="translate(15, 271.22727272727275)"><rect class="cell" height="67.80681818181819" width="124.60063073394497" fill="white" stroke="#6B7279"/><rect class="cell" height="67.80681818181819" width="3" transform="translate(-3, 0)" fill="#6B7279" stroke="#6B7279"/><text font-size="12" fill="black"><tspan x="4" y="22.736742424242426">Credentials</tspan><tspan x="4" y="37.40340909090909">from Web</tspan><tspan x="4" y="52.07007575757576">Browsers</tspan></text></g><g class="subtechnique T1003.001" transform="translate(15, 474.64772727272725)"><rect class="cell" height="67.80681818181819" width="124.60063073394497" fill="white" stroke="#6B7279"/><rect class="cell" height="67.80681818181819" width="3" transform="translate(-3, 0)" fill="#6B7279" stroke="#6B7279"/><text font-size="12" fill="black"><tspan x="4" y="37.40340909090909">LSASS Memory</tspan></text></g><g class="subtechnique T1552.001" transform="translate(15, 610.2613636363636)"><rect class="cell" height="67.80681818181819" width="124.60063073394497" fill="white" stroke="#6B7279"/><rect class="cell" height="67.80681818181819" width="3" transform="translate(-3, 0)" fill="#6B7279" stroke="#6B7279"/><text font-size="12" fill="black"><tspan x="4" y="30.153409090909093">Credentials In</tspan><tspan x="4" y="44.65340909090909">Files</tspan></text></g></g><g class="tactic-label"><text font-size="12" fill="black" font-weight="bold"><tspan text-anchor="middle" x="69.80031536697248" y="30.153409090909093">Credential</tspan><tspan text-anchor="middle" x="69.80031536697248" y="44.65340909090909">Access</tspan></text></g></g><g class="tactic discovery" transform="translate(930.6708715596332, 0)"><g class="techniques"><g class="technique T1087" transform="translate(0, 67.80681818181819)"><rect class="cell" height="67.80681818181819" width="139.60063073394497" fill="#dadaeb" stroke="#6B7279"/><polygon class="sidebar" transform="translate(0, 67.80681818181819)" points="0,0 12,0 12,12" fill="#6B7279" visibility="visible"/><text font-size="12" fill="black"><tspan x="4" y="30.153409090909093">Account</tspan><tspan x="4" y="44.65340909090909">Discovery</tspan></text></g><g class="technique T1040" transform="translate(0, 203.42045454545453)"><rect class="cell" height="67.80681818181819" width="139.60063073394497" fill="#dadaeb" stroke="#6B7279"/><polygon class="sidebar" transform="translate(0, 67.80681818181819)" points="0,0 12,0 12,0" fill="#6B7279" visibility="hidden"/><text font-size="12" fill="black"><tspan x="4" y="30.153409090909093">Network</tspan><tspan x="4" y="44.65340909090909">Sniffing</tspan></text></g><g class="technique T1057" transform="translate(0, 271.22727272727275)"><rect class="cell" height="67.80681818181819" width="139.60063073394497" fill="#dadaeb" stroke="#6B7279"/><polygon class="sidebar" transform="translate(0, 67.80681818181819)" points="0,0 12,0 12,0" fill="#6B7279" visibility="hidden"/><text font-size="12" fill="black"><tspan x="4" y="30.153409090909093">Process</tspan><tspan x="4" y="44.65340909090909">Discovery</tspan></text></g></g><g class="subtechniques"><g class="subtechnique T1087.003" transform="translate(15, 135.61363636363637)"><rect class="cell" height="67.80681818181819" width="124.60063073394497" fill="white" stroke="#6B7279"/><rect class="cell" height="67.80681818181819" width="3" transform="translate(-3, 0)" fill="#6B7279" stroke="#6B7279"/><text font-size="12" fill="black"><tspan x="4" y="37.40340909090909">Email Account</tspan></text></g></g><g class="tactic-label"><text font-size="12" fill="black" font-weight="bold"><tspan text-anchor="middle" x="69.80031536697248" y="37.40340909090909">Discovery</tspan></text></g></g><g class="tactic lateral-movement" transform="translate(1085.7826834862387, 0)"><g class="techniques"><g class="technique T1210" transform="translate(0, 67.80681818181819)"><rect class="cell" height="67.80681818181819" width="139.60063073394497" fill="#dadaeb" stroke="#6B7279"/><polygon class="sidebar" transform="translate(0, 67.80681818181819)" points="0,0 12,0 12,0" fill="#6B7279" visibility="hidden"/><text font-size="12" fill="black"><tspan x="4" y="30.153409090909093">Exploitation of</tspan><tspan x="4" y="44.65340909090909">Remote Services</tspan></text></g><g class="technique T1021" transform="translate(0, 135.61363636363637)"><rect class="cell" height="67.80681818181819" width="139.60063073394497" fill="#dadaeb" stroke="#6B7279"/><polygon class="sidebar" transform="translate(0, 67.80681818181819)" points="0,0 12,0 12,12" fill="#6B7279" visibility="visible"/><text font-size="12" fill="black"><tspan x="4" y="37.40340909090909">Remote Services</tspan></text></g></g><g class="subtechniques"><g class="subtechnique T1021.002" transform="translate(15, 203.42045454545453)"><rect class="cell" height="67.80681818181819" width="124.60063073394497" fill="white" stroke="#6B7279"/><rect class="cell" height="67.80681818181819" width="3" transform="translate(-3, 0)" fill="#6B7279" stroke="#6B7279"/><text font-size="12" fill="black"><tspan x="4" y="30.153409090909093">SMB/Windows</tspan><tspan x="4" y="44.65340909090909">Admin Shares</tspan></text></g></g><g class="tactic-label"><text font-size="12" fill="black" font-weight="bold"><tspan text-anchor="middle" x="69.80031536697248" y="30.153409090909093">Lateral</tspan><tspan text-anchor="middle" x="69.80031536697248" y="44.65340909090909">Movement</tspan></text></g></g><g class="tactic collection" transform="translate(1240.8944954128442, 0)"><g class="techniques"><g class="technique T1560" transform="translate(0, 67.80681818181819)"><rect class="cell" height="67.80681818181819" width="139.60063073394497" fill="#dadaeb" stroke="#6B7279"/><polygon class="sidebar" transform="translate(0, 67.80681818181819)" points="0,0 12,0 12,0" fill="#6B7279" visibility="visible"/><text font-size="12" fill="black"><tspan x="4" y="30.153409090909093">Archive</tspan><tspan x="4" y="44.65340909090909">Collected Data</tspan></text></g><g class="technique T1114" transform="translate(0, 135.61363636363637)"><rect class="cell" height="67.80681818181819" width="139.60063073394497" fill="#dadaeb" stroke="#6B7279"/><polygon class="sidebar" transform="translate(0, 67.80681818181819)" points="0,0 12,0 12,12" fill="#6B7279" visibility="visible"/><text font-size="12" fill="black"><tspan x="4" y="30.153409090909093">Email</tspan><tspan x="4" y="44.65340909090909">Collection</tspan></text></g></g><g class="subtechniques"><g class="subtechnique T1114.001" transform="translate(15, 203.42045454545453)"><rect class="cell" height="67.80681818181819" width="124.60063073394497" fill="white" stroke="#6B7279"/><rect class="cell" height="67.80681818181819" width="3" transform="translate(-3, 0)" fill="#6B7279" stroke="#6B7279"/><text font-size="12" fill="black"><tspan x="4" y="30.153409090909093">Local Email</tspan><tspan x="4" y="44.65340909090909">Collection</tspan></text></g></g><g class="tactic-label"><text font-size="12" fill="black" font-weight="bold"><tspan text-anchor="middle" x="69.80031536697248" y="37.40340909090909">Collection</tspan></text></g></g><g class="tactic command-and-control" transform="translate(1396.0063073394497, 0)"><g class="techniques"><g class="technique T1573" transform="translate(0, 67.80681818181819)"><rect class="cell" height="67.80681818181819" width="139.60063073394497" fill="#dadaeb" stroke="#6B7279"/><polygon class="sidebar" transform="translate(0, 67.80681818181819)" points="0,0 12,0 12,12" fill="#6B7279" visibility="visible"/><text font-size="12" fill="black"><tspan x="4" y="30.153409090909093">Encrypted</tspan><tspan x="4" y="44.65340909090909">Channel</tspan></text></g><g class="technique T1571" transform="translate(0, 203.42045454545453)"><rect class="cell" height="67.80681818181819" width="139.60063073394497" fill="#dadaeb" stroke="#6B7279"/><polygon class="sidebar" transform="translate(0, 67.80681818181819)" points="0,0 12,0 12,0" fill="#6B7279" visibility="hidden"/><text font-size="12" fill="black"><tspan x="4" y="30.153409090909093">Non-Standard</tspan><tspan x="4" y="44.65340909090909">Port</tspan></text></g></g><g class="subtechniques"><g class="subtechnique T1573.002" transform="translate(15, 135.61363636363637)"><rect class="cell" height="67.80681818181819" width="124.60063073394497" fill="white" stroke="#6B7279"/><rect class="cell" height="67.80681818181819" width="3" transform="translate(-3, 0)" fill="#6B7279" stroke="#6B7279"/><text font-size="12" fill="black"><tspan x="4" y="30.153409090909093">Asymmetric</tspan><tspan x="4" y="44.65340909090909">Cryptography</tspan></text></g></g><g class="tactic-label"><text font-size="12" fill="black" font-weight="bold"><tspan text-anchor="middle" x="69.80031536697248" y="30.153409090909093">Command and</tspan><tspan text-anchor="middle" x="69.80031536697248" y="44.65340909090909">Control</tspan></text></g></g><g class="tactic exfiltration" transform="translate(1551.1181192660551, 0)"><g class="techniques"><g class="technique T1041" transform="translate(0, 67.80681818181819)"><rect class="cell" height="67.80681818181819" width="139.60063073394497" fill="#dadaeb" stroke="#6B7279"/><polygon class="sidebar" transform="translate(0, 67.80681818181819)" points="0,0 12,0 12,0" fill="#6B7279" visibility="hidden"/><text font-size="12" fill="black"><tspan x="4" y="30.153409090909093">Exfiltration</tspan><tspan x="4" y="44.65340909090909">Over C2 Channel</tspan></text></g></g><g class="subtechniques"/><g class="tactic-label"><text font-size="12" fill="black" font-weight="bold"><tspan text-anchor="middle" x="69.80031536697248" y="37.40340909090909">Exfiltration</tspan></text></g></g></g></g></g></svg>