<?xml version="1.0" standalone="no"?>
<svg width="1056" height="816" xmlns="http://www.w3.org/2000/svg" id="svgvm14"><g transform="translate(5,5)" style="font-family: sans-serif;"><g transform="translate(0,1)"><rect class="tactic-header-background" width="1046" height="67.16666666666666" fill="#dddddd" stroke="#6B7279"/><g><g class="tactic initial-access" transform="translate(0, 0)"><g class="techniques"><g class="technique T1566" transform="translate(0, 67.16666666666666)"><rect class="cell" height="67.16666666666666" width="79.10924369747899" fill="white" stroke="#6B7279"/><polygon class="sidebar" transform="translate(0, 67.16666666666666)" points="0,0 12,0 12,12" fill="#6B7279" visibility="visible"/><text font-size="12" fill="black"><tspan x="4" y="37.08333333333333">Phishing</tspan></text></g><g class="technique T1078" transform="translate(0, 268.66666666666663)"><rect class="cell" height="67.16666666666666" width="79.10924369747899" fill="white" stroke="#6B7279"/><polygon class="sidebar" transform="translate(0, 67.16666666666666)" points="0,0 12,0 12,12" fill="#6B7279" visibility="visible"/><text font-size="12" fill="black"><tspan x="4" y="29.83333333333333">Valid</tspan><tspan x="4" y="44.33333333333333">Accounts</tspan></text></g></g><g class="subtechniques"><g class="subtechnique T1566.001" transform="translate(15, 134.33333333333331)"><rect class="cell" height="67.16666666666666" width="64.10924369747899" fill="#ff6666" stroke="#6B7279"/><rect class="cell" height="67.16666666666666" width="3" transform="translate(-3, 0)" fill="#6B7279" stroke="#6B7279"/><text font-size="6.258338720103425" fill="black"><tspan x="4" y="27.83333333333333">Spearphishing</tspan><tspan x="4" y="42.33333333333333">Attachment</tspan></text></g><g class="subtechnique T1566.002" transform="translate(15, 201.5)"><rect class="cell" height="67.16666666666666" width="64.10924369747899" fill="#ff6666" stroke="#6B7279"/><rect class="cell" height="67.16666666666666" width="3" transform="translate(-3, 0)" fill="#6B7279" stroke="#6B7279"/><text font-size="6.258338720103425" fill="black"><tspan x="4" y="27.83333333333333">Spearphishing</tspan><tspan x="4" y="42.33333333333333">Link</tspan></text></g><g class="subtechnique T1078.003" transform="translate(15, 335.83333333333337)"><rect class="cell" height="67.16666666666666" width="64.10924369747899" fill="#ff6666" stroke="#6B7279"/><rect class="cell" height="67.16666666666666" width="3" transform="translate(-3, 0)" fill="#6B7279" stroke="#6B7279"/><text font-size="10.169800420168066" fill="black"><tspan x="4" y="29.83333333333333">Local</tspan><tspan x="4" y="44.33333333333333">Accounts</tspan></text></g></g><g class="tactic-label"><text font-size="12" fill="black" font-weight="bold"><tspan text-anchor="middle" x="39.554621848739494" y="29.83333333333333">Initial</tspan><tspan text-anchor="middle" x="39.554621848739494" y="44.33333333333333">Access</tspan></text></g></g><g class="tactic execution" transform="translate(87.89915966386555, 0)"><g class="techniques"><g class="technique T1059" transform="translate(0, 67.16666666666666)"><rect class="cell" height="67.16666666666666" width="79.10924369747899" fill="white" stroke="#6B7279"/><polygon class="sidebar" transform="translate(0, 67.16666666666666)" points="0,0 12,0 12,12" fill="#6B7279" visibility="visible"/><text font-size="9.373491214667684" fill="black"><tspan x="4" y="21.41666666666666">Command and</tspan><tspan x="4" y="36.08333333333333">Scripting</tspan><tspan x="4" y="50.74999999999999">Interpreter</tspan></text></g><g class="technique T1106" transform="translate(0, 335.83333333333337)"><rect class="cell" height="67.16666666666666" width="79.10924369747899" fill="rgb(253, 230, 101)" stroke="#6B7279"/><polygon class="sidebar" transform="translate(0, 67.16666666666666)" points="0,0 12,0 12,0" fill="#6B7279" visibility="hidden"/><text font-size="12" fill="black"><tspan x="4" y="29.83333333333333">Native</tspan><tspan x="4" y="44.33333333333333">API</tspan></text></g><g class="technique T1047" transform="translate(0, 403)"><rect class="cell" height="67.16666666666666" width="79.10924369747899" fill="#ff6666" stroke="#6B7279"/><polygon class="sidebar" transform="translate(0, 67.16666666666666)" points="0,0 12,0 12,0" fill="#6B7279" visibility="hidden"/><text font-size="6.873893557422969" fill="black"><tspan x="4" y="21.41666666666666">Windows</tspan><tspan x="4" y="36.08333333333333">Management</tspan><tspan x="4" y="50.74999999999999">Instrumentation</tspan></text></g></g><g class="subtechniques"><g class="subtechnique T1059.001" transform="translate(15, 134.33333333333331)"><rect class="cell" height="67.16666666666666" width="64.10924369747899" fill="#ff6666" stroke="#6B7279"/><rect class="cell" height="67.16666666666666" width="3" transform="translate(-3, 0)" fill="#6B7279" stroke="#6B7279"/><text font-size="8.135840336134454" fill="black"><tspan x="4" y="36.08333333333333">PowerShell</tspan></text></g><g class="subtechnique T1059.003" transform="translate(15, 201.5)"><rect class="cell" height="67.16666666666666" width="64.10924369747899" fill="#8ec843" stroke="#6B7279"/><rect class="cell" height="67.16666666666666" width="3" transform="translate(-3, 0)" fill="#6B7279" stroke="#6B7279"/><text font-size="11.622629051620647" fill="black"><tspan x="4" y="22.41666666666666">Windows</tspan><tspan x="4" y="37.08333333333333">Command</tspan><tspan x="4" y="51.74999999999999">Shell</tspan></text></g><g class="subtechnique T1059.005" transform="translate(15, 268.66666666666663)"><rect class="cell" height="67.16666666666666" width="64.10924369747899" fill="#ff6666" stroke="#6B7279"/><rect class="cell" height="67.16666666666666" width="3" transform="translate(-3, 0)" fill="#6B7279" stroke="#6B7279"/><text font-size="12" fill="black"><tspan x="4" y="29.83333333333333">Visual</tspan><tspan x="4" y="44.33333333333333">Basic</tspan></text></g></g><g class="tactic-label"><text font-size="11.456489262371614" fill="black" font-weight="bold"><tspan text-anchor="middle" x="39.554621848739494" y="37.08333333333333">Execution</tspan></text></g></g><g class="tactic persistence" transform="translate(175.7983193277311, 0)"><g class="techniques"><g class="technique T1547" transform="translate(0, 67.16666666666666)"><rect class="cell" height="67.16666666666666" width="79.10924369747899" fill="white" stroke="#6B7279"/><polygon class="sidebar" transform="translate(0, 67.16666666666666)" points="0,0 12,0 12,12" fill="#6B7279" visibility="visible"/><text font-size="11.456489262371614" fill="black"><tspan x="4" y="14.958333333333329">Boot or</tspan><tspan x="4" y="29.70833333333333">Logon</tspan><tspan x="4" y="44.45833333333333">Autostart</tspan><tspan x="4" y="59.20833333333333">Execution</tspan></text></g><g class="technique T1543" transform="translate(0, 201.5)"><rect class="cell" height="67.16666666666666" width="79.10924369747899" fill="white" stroke="#6B7279"/><polygon class="sidebar" transform="translate(0, 67.16666666666666)" points="0,0 12,0 12,12" fill="#6B7279" visibility="visible"/><text font-size="11.456489262371614" fill="black"><tspan x="4" y="14.958333333333329">Create or</tspan><tspan x="4" y="29.70833333333333">Modify</tspan><tspan x="4" y="44.45833333333333">System</tspan><tspan x="4" y="59.20833333333333">Process</tspan></text></g><g class="technique T1078" transform="translate(0, 335.83333333333337)"><rect class="cell" height="67.16666666666666" width="79.10924369747899" fill="white" stroke="#6B7279"/><polygon class="sidebar" transform="translate(0, 67.16666666666666)" points="0,0 12,0 12,12" fill="#6B7279" visibility="visible"/><text font-size="12" fill="black"><tspan x="4" y="29.83333333333333">Valid</tspan><tspan x="4" y="44.33333333333333">Accounts</tspan></text></g></g><g class="subtechniques"><g class="subtechnique T1547.001" transform="translate(15, 134.33333333333331)"><rect class="cell" height="67.16666666666666" width="64.10924369747899" fill="#8ec843" stroke="#6B7279"/><rect class="cell" height="67.16666666666666" width="3" transform="translate(-3, 0)" fill="#6B7279" stroke="#6B7279"/><text font-size="10.169800420168066" fill="black"><tspan x="4" y="10.616666666666665">Registry</tspan><tspan x="4" y="23.849999999999994">Run Keys</tspan><tspan x="4" y="37.08333333333333">/</tspan><tspan x="4" y="50.316666666666656">Startup</tspan><tspan x="4" y="63.54999999999999">Folder</tspan></text></g><g class="subtechnique T1543.003" transform="translate(15, 268.66666666666663)"><rect class="cell" height="67.16666666666666" width="64.10924369747899" fill="#ff6666" stroke="#6B7279"/><rect class="cell" height="67.16666666666666" width="3" transform="translate(-3, 0)" fill="#6B7279" stroke="#6B7279"/><text font-size="11.622629051620647" fill="black"><tspan x="4" y="29.83333333333333">Windows</tspan><tspan x="4" y="44.33333333333333">Service</tspan></text></g><g class="subtechnique T1078.003" transform="translate(15, 403)"><rect class="cell" height="67.16666666666666" width="64.10924369747899" fill="#ff6666" stroke="#6B7279"/><rect class="cell" height="67.16666666666666" width="3" transform="translate(-3, 0)" fill="#6B7279" stroke="#6B7279"/><text font-size="10.169800420168066" fill="black"><tspan x="4" y="29.83333333333333">Local</tspan><tspan x="4" y="44.33333333333333">Accounts</tspan></text></g></g><g class="tactic-label"><text font-size="9.373491214667684" fill="black" font-weight="bold"><tspan text-anchor="middle" x="39.554621848739494" y="36.08333333333333">Persistence</tspan></text></g></g><g class="tactic privilege-escalation" transform="translate(263.69747899159665, 0)"><g class="techniques"><g class="technique T1134" transform="translate(0, 67.16666666666666)"><rect class="cell" height="67.16666666666666" width="79.10924369747899" fill="rgb(253, 230, 101)" stroke="#6B7279"/><polygon class="sidebar" transform="translate(0, 67.16666666666666)" points="0,0 12,0 12,0" fill="#6B7279" visibility="visible"/><text font-size="8.59236694677871" fill="black"><tspan x="4" y="28.83333333333333">Access Token</tspan><tspan x="4" y="43.33333333333333">Manipulation</tspan></text></g><g class="technique T1547" transform="translate(0, 134.33333333333331)"><rect class="cell" height="67.16666666666666" width="79.10924369747899" fill="white" stroke="#6B7279"/><polygon class="sidebar" transform="translate(0, 67.16666666666666)" points="0,0 12,0 12,12" fill="#6B7279" visibility="visible"/><text font-size="11.456489262371614" fill="black"><tspan x="4" y="14.958333333333329">Boot or</tspan><tspan x="4" y="29.70833333333333">Logon</tspan><tspan x="4" y="44.45833333333333">Autostart</tspan><tspan x="4" y="59.20833333333333">Execution</tspan></text></g><g class="technique T1543" transform="translate(0, 268.66666666666663)"><rect class="cell" height="67.16666666666666" width="79.10924369747899" fill="white" stroke="#6B7279"/><polygon class="sidebar" transform="translate(0, 67.16666666666666)" points="0,0 12,0 12,12" fill="#6B7279" visibility="visible"/><text font-size="11.456489262371614" fill="black"><tspan x="4" y="14.958333333333329">Create or</tspan><tspan x="4" y="29.70833333333333">Modify</tspan><tspan x="4" y="44.45833333333333">System</tspan><tspan x="4" y="59.20833333333333">Process</tspan></text></g><g class="technique T1055" transform="translate(0, 403)"><rect class="cell" height="67.16666666666666" width="79.10924369747899" fill="rgb(253, 230, 101)" stroke="#6B7279"/><polygon class="sidebar" transform="translate(0, 67.16666666666666)" points="0,0 12,0 12,12" fill="#6B7279" visibility="visible"/><text font-size="11.456489262371614" fill="black"><tspan x="4" y="29.83333333333333">Process</tspan><tspan x="4" y="44.33333333333333">Injection</tspan></text></g><g class="technique T1078" transform="translate(0, 537.3333333333333)"><rect class="cell" height="67.16666666666666" width="79.10924369747899" fill="white" stroke="#6B7279"/><polygon class="sidebar" transform="translate(0, 67.16666666666666)" points="0,0 12,0 12,12" fill="#6B7279" visibility="visible"/><text font-size="12" fill="black"><tspan x="4" y="29.83333333333333">Valid</tspan><tspan x="4" y="44.33333333333333">Accounts</tspan></text></g></g><g class="subtechniques"><g class="subtechnique T1547.001" transform="translate(15, 201.5)"><rect class="cell" height="67.16666666666666" width="64.10924369747899" fill="#8ec843" stroke="#6B7279"/><rect class="cell" height="67.16666666666666" width="3" transform="translate(-3, 0)" fill="#6B7279" stroke="#6B7279"/><text font-size="10.169800420168066" fill="black"><tspan x="4" y="10.616666666666665">Registry</tspan><tspan x="4" y="23.849999999999994">Run Keys</tspan><tspan x="4" y="37.08333333333333">/</tspan><tspan x="4" y="50.316666666666656">Startup</tspan><tspan x="4" y="63.54999999999999">Folder</tspan></text></g><g class="subtechnique T1543.003" transform="translate(15, 335.83333333333337)"><rect class="cell" height="67.16666666666666" width="64.10924369747899" fill="#ff6666" stroke="#6B7279"/><rect class="cell" height="67.16666666666666" width="3" transform="translate(-3, 0)" fill="#6B7279" stroke="#6B7279"/><text font-size="11.622629051620647" fill="black"><tspan x="4" y="29.83333333333333">Windows</tspan><tspan x="4" y="44.33333333333333">Service</tspan></text></g><g class="subtechnique T1055.001" transform="translate(15, 470.1666666666667)"><rect class="cell" height="67.16666666666666" width="64.10924369747899" fill="#ff6666" stroke="#6B7279"/><rect class="cell" height="67.16666666666666" width="3" transform="translate(-3, 0)" fill="#6B7279" stroke="#6B7279"/><text font-size="6.779866946778711" fill="black"><tspan x="4" y="21.41666666666666">Dynamic-link</tspan><tspan x="4" y="36.08333333333333">Library</tspan><tspan x="4" y="50.74999999999999">Injection</tspan></text></g><g class="subtechnique T1078.003" transform="translate(15, 604.5)"><rect class="cell" height="67.16666666666666" width="64.10924369747899" fill="#ff6666" stroke="#6B7279"/><rect class="cell" height="67.16666666666666" width="3" transform="translate(-3, 0)" fill="#6B7279" stroke="#6B7279"/><text font-size="10.169800420168066" fill="black"><tspan x="4" y="29.83333333333333">Local</tspan><tspan x="4" y="44.33333333333333">Accounts</tspan></text></g></g><g class="tactic-label"><text font-size="10.310840336134452" fill="black" font-weight="bold"><tspan text-anchor="middle" x="39.554621848739494" y="29.83333333333333">Privilege</tspan><tspan text-anchor="middle" x="39.554621848739494" y="44.33333333333333">Escalation</tspan></text></g></g><g class="tactic defense-evasion" transform="translate(351.5966386554622, 0)"><g class="techniques"><g class="technique T1134" transform="translate(0, 67.16666666666666)"><rect class="cell" height="67.16666666666666" width="79.10924369747899" fill="rgb(253, 230, 101)" stroke="#6B7279"/><polygon class="sidebar" transform="translate(0, 67.16666666666666)" points="0,0 12,0 12,0" fill="#6B7279" visibility="visible"/><text font-size="8.59236694677871" fill="black"><tspan x="4" y="28.83333333333333">Access Token</tspan><tspan x="4" y="43.33333333333333">Manipulation</tspan></text></g><g class="technique T1562" transform="translate(0, 134.33333333333331)"><rect class="cell" height="67.16666666666666" width="79.10924369747899" fill="white" stroke="#6B7279"/><polygon class="sidebar" transform="translate(0, 67.16666666666666)" points="0,0 12,0 12,12" fill="#6B7279" visibility="visible"/><text font-size="12" fill="black"><tspan x="4" y="29.83333333333333">Impair</tspan><tspan x="4" y="44.33333333333333">Defenses</tspan></text></g><g class="technique T1036" transform="translate(0, 268.66666666666663)"><rect class="cell" height="67.16666666666666" width="79.10924369747899" fill="white" stroke="#6B7279"/><polygon class="sidebar" transform="translate(0, 67.16666666666666)" points="0,0 12,0 12,12" fill="#6B7279" visibility="visible"/><text font-size="8.59236694677871" fill="black"><tspan x="4" y="36.08333333333333">Masquerading</tspan></text></g><g class="technique T1027" transform="translate(0, 403)"><rect class="cell" height="67.16666666666666" width="79.10924369747899" fill="#ff6666" stroke="#6B7279"/><polygon class="sidebar" transform="translate(0, 67.16666666666666)" points="0,0 12,0 12,12" fill="#6B7279" visibility="visible"/><text font-size="9.373491214667684" fill="black"><tspan x="4" y="21.41666666666666">Obfuscated</tspan><tspan x="4" y="36.08333333333333">Files or</tspan><tspan x="4" y="50.74999999999999">Information</tspan></text></g><g class="technique T1055" transform="translate(0, 537.3333333333333)"><rect class="cell" height="67.16666666666666" width="79.10924369747899" fill="rgb(253, 230, 101)" stroke="#6B7279"/><polygon class="sidebar" transform="translate(0, 67.16666666666666)" points="0,0 12,0 12,12" fill="#6B7279" visibility="visible"/><text font-size="11.456489262371614" fill="black"><tspan x="4" y="29.83333333333333">Process</tspan><tspan x="4" y="44.33333333333333">Injection</tspan></text></g><g class="technique T1078" transform="translate(0, 671.6666666666667)"><rect class="cell" height="67.16666666666666" width="79.10924369747899" fill="white" stroke="#6B7279"/><polygon class="sidebar" transform="translate(0, 67.16666666666666)" points="0,0 12,0 12,12" fill="#6B7279" visibility="visible"/><text font-size="12" fill="black"><tspan x="4" y="29.83333333333333">Valid</tspan><tspan x="4" y="44.33333333333333">Accounts</tspan></text></g></g><g class="subtechniques"><g class="subtechnique T1562.001" transform="translate(15, 201.5)"><rect class="cell" height="67.16666666666666" width="64.10924369747899" fill="rgb(253, 230, 101)" stroke="#6B7279"/><rect class="cell" height="67.16666666666666" width="3" transform="translate(-3, 0)" fill="#6B7279" stroke="#6B7279"/><text font-size="11.622629051620647" fill="black"><tspan x="4" y="14.958333333333329">Disable</tspan><tspan x="4" y="29.70833333333333">or</tspan><tspan x="4" y="44.45833333333333">Modify</tspan><tspan x="4" y="59.20833333333333">Tools</tspan></text></g><g class="subtechnique T1036.005" transform="translate(15, 335.83333333333337)"><rect class="cell" height="67.16666666666666" width="64.10924369747899" fill="rgb(253, 230, 101)" stroke="#6B7279"/><rect class="cell" height="67.16666666666666" width="3" transform="translate(-3, 0)" fill="#6B7279" stroke="#6B7279"/><text font-size="8.135840336134454" fill="black"><tspan x="4" y="13.958333333333329">Match</tspan><tspan x="4" y="28.70833333333333">Legitimate</tspan><tspan x="4" y="43.45833333333333">Name or</tspan><tspan x="4" y="58.20833333333333">Location</tspan></text></g><g class="subtechnique T1027.002" transform="translate(15, 470.1666666666667)"><rect class="cell" height="67.16666666666666" width="64.10924369747899" fill="#ff6666" stroke="#6B7279"/><rect class="cell" height="67.16666666666666" width="3" transform="translate(-3, 0)" fill="#6B7279" stroke="#6B7279"/><text font-size="10.169800420168066" fill="black"><tspan x="4" y="29.83333333333333">Software</tspan><tspan x="4" y="44.33333333333333">Packing</tspan></text></g><g class="subtechnique T1055.001" transform="translate(15, 604.5)"><rect class="cell" height="67.16666666666666" width="64.10924369747899" fill="#ff6666" stroke="#6B7279"/><rect class="cell" height="67.16666666666666" width="3" transform="translate(-3, 0)" fill="#6B7279" stroke="#6B7279"/><text font-size="6.779866946778711" fill="black"><tspan x="4" y="21.41666666666666">Dynamic-link</tspan><tspan x="4" y="36.08333333333333">Library</tspan><tspan x="4" y="50.74999999999999">Injection</tspan></text></g><g class="subtechnique T1078.003" transform="translate(15, 738.8333333333333)"><rect class="cell" height="67.16666666666666" width="64.10924369747899" fill="#ff6666" stroke="#6B7279"/><rect class="cell" height="67.16666666666666" width="3" transform="translate(-3, 0)" fill="#6B7279" stroke="#6B7279"/><text font-size="10.169800420168066" fill="black"><tspan x="4" y="29.83333333333333">Local</tspan><tspan x="4" y="44.33333333333333">Accounts</tspan></text></g></g><g class="tactic-label"><text font-size="12" fill="black" font-weight="bold"><tspan text-anchor="middle" x="39.554621848739494" y="29.83333333333333">Defense</tspan><tspan text-anchor="middle" x="39.554621848739494" y="44.33333333333333">Evasion</tspan></text></g></g><g class="tactic credential-access" transform="translate(439.4957983193277, 0)"><g class="techniques"><g class="technique T1110" transform="translate(0, 67.16666666666666)"><rect class="cell" height="67.16666666666666" width="79.10924369747899" fill="white" stroke="#6B7279"/><polygon class="sidebar" transform="translate(0, 67.16666666666666)" points="0,0 12,0 12,12" fill="#6B7279" visibility="visible"/><text font-size="12" fill="black"><tspan x="4" y="29.83333333333333">Brute</tspan><tspan x="4" y="44.33333333333333">Force</tspan></text></g><g class="technique T1555" transform="translate(0, 201.5)"><rect class="cell" height="67.16666666666666" width="79.10924369747899" fill="white" stroke="#6B7279"/><polygon class="sidebar" transform="translate(0, 67.16666666666666)" points="0,0 12,0 12,12" fill="#6B7279" visibility="visible"/><text font-size="9.373491214667684" fill="black"><tspan x="4" y="13.958333333333329">Credentials</tspan><tspan x="4" y="28.70833333333333">from</tspan><tspan x="4" y="43.45833333333333">Password</tspan><tspan x="4" y="58.20833333333333">Stores</tspan></text></g><g class="technique T1040" transform="translate(0, 335.83333333333337)"><rect class="cell" height="67.16666666666666" width="79.10924369747899" fill="#ff6666" stroke="#6B7279"/><polygon class="sidebar" transform="translate(0, 67.16666666666666)" points="0,0 12,0 12,0" fill="#6B7279" visibility="hidden"/><text font-size="12" fill="black"><tspan x="4" y="29.83333333333333">Network</tspan><tspan x="4" y="44.33333333333333">Sniffing</tspan></text></g><g class="technique T1003" transform="translate(0, 403)"><rect class="cell" height="67.16666666666666" width="79.10924369747899" fill="white" stroke="#6B7279"/><polygon class="sidebar" transform="translate(0, 67.16666666666666)" points="0,0 12,0 12,12" fill="#6B7279" visibility="visible"/><text font-size="10.310840336134452" fill="black"><tspan x="4" y="22.41666666666666">OS</tspan><tspan x="4" y="37.08333333333333">Credential</tspan><tspan x="4" y="51.74999999999999">Dumping</tspan></text></g><g class="technique T1552" transform="translate(0, 537.3333333333333)"><rect class="cell" height="67.16666666666666" width="79.10924369747899" fill="white" stroke="#6B7279"/><polygon class="sidebar" transform="translate(0, 67.16666666666666)" points="0,0 12,0 12,12" fill="#6B7279" visibility="visible"/><text font-size="9.373491214667684" fill="black"><tspan x="4" y="28.83333333333333">Unsecured</tspan><tspan x="4" y="43.33333333333333">Credentials</tspan></text></g></g><g class="subtechniques"><g class="subtechnique T1110.001" transform="translate(15, 134.33333333333331)"><rect class="cell" height="67.16666666666666" width="64.10924369747899" fill="#ff6666" stroke="#6B7279"/><rect class="cell" height="67.16666666666666" width="3" transform="translate(-3, 0)" fill="#6B7279" stroke="#6B7279"/><text font-size="10.169800420168066" fill="black"><tspan x="4" y="29.83333333333333">Password</tspan><tspan x="4" y="44.33333333333333">Guessing</tspan></text></g><g class="subtechnique T1555.003" transform="translate(15, 268.66666666666663)"><rect class="cell" height="67.16666666666666" width="64.10924369747899" fill="#ff6666" stroke="#6B7279"/><rect class="cell" height="67.16666666666666" width="3" transform="translate(-3, 0)" fill="#6B7279" stroke="#6B7279"/><text font-size="7.3962184873949575" fill="black"><tspan x="4" y="21.41666666666666">Credentials</tspan><tspan x="4" y="36.08333333333333">from Web</tspan><tspan x="4" y="50.74999999999999">Browsers</tspan></text></g><g class="subtechnique T1003.001" transform="translate(15, 470.1666666666667)"><rect class="cell" height="67.16666666666666" width="64.10924369747899" fill="#ff6666" stroke="#6B7279"/><rect class="cell" height="67.16666666666666" width="3" transform="translate(-3, 0)" fill="#6B7279" stroke="#6B7279"/><text font-size="12" fill="black"><tspan x="4" y="29.83333333333333">LSASS</tspan><tspan x="4" y="44.33333333333333">Memory</tspan></text></g><g class="subtechnique T1552.001" transform="translate(15, 604.5)"><rect class="cell" height="67.16666666666666" width="64.10924369747899" fill="#ff6666" stroke="#6B7279"/><rect class="cell" height="67.16666666666666" width="3" transform="translate(-3, 0)" fill="#6B7279" stroke="#6B7279"/><text font-size="7.3962184873949575" fill="black"><tspan x="4" y="28.83333333333333">Credentials</tspan><tspan x="4" y="43.33333333333333">In Files</tspan></text></g></g><g class="tactic-label"><text font-size="10.310840336134452" fill="black" font-weight="bold"><tspan text-anchor="middle" x="39.554621848739494" y="29.83333333333333">Credential</tspan><tspan text-anchor="middle" x="39.554621848739494" y="44.33333333333333">Access</tspan></text></g></g><g class="tactic discovery" transform="translate(527.3949579831933, 0)"><g class="techniques"><g class="technique T1087" transform="translate(0, 67.16666666666666)"><rect class="cell" height="67.16666666666666" width="79.10924369747899" fill="white" stroke="#6B7279"/><polygon class="sidebar" transform="translate(0, 67.16666666666666)" points="0,0 12,0 12,12" fill="#6B7279" visibility="visible"/><text font-size="11.456489262371614" fill="black"><tspan x="4" y="29.83333333333333">Account</tspan><tspan x="4" y="44.33333333333333">Discovery</tspan></text></g><g class="technique T1083" transform="translate(0, 201.5)"><rect class="cell" height="67.16666666666666" width="79.10924369747899" fill="rgb(253, 230, 101)" stroke="#6B7279"/><polygon class="sidebar" transform="translate(0, 67.16666666666666)" points="0,0 12,0 12,0" fill="#6B7279" visibility="hidden"/><text font-size="11.456489262371614" fill="black"><tspan x="4" y="22.41666666666666">File and</tspan><tspan x="4" y="37.08333333333333">Directory</tspan><tspan x="4" y="51.74999999999999">Discovery</tspan></text></g><g class="technique T1040" transform="translate(0, 268.66666666666663)"><rect class="cell" height="67.16666666666666" width="79.10924369747899" fill="#ff6666" stroke="#6B7279"/><polygon class="sidebar" transform="translate(0, 67.16666666666666)" points="0,0 12,0 12,0" fill="#6B7279" visibility="hidden"/><text font-size="12" fill="black"><tspan x="4" y="29.83333333333333">Network</tspan><tspan x="4" y="44.33333333333333">Sniffing</tspan></text></g><g class="technique T1057" transform="translate(0, 335.83333333333337)"><rect class="cell" height="67.16666666666666" width="79.10924369747899" fill="#8ec843" stroke="#6B7279"/><polygon class="sidebar" transform="translate(0, 67.16666666666666)" points="0,0 12,0 12,0" fill="#6B7279" visibility="hidden"/><text font-size="11.456489262371614" fill="black"><tspan x="4" y="29.83333333333333">Process</tspan><tspan x="4" y="44.33333333333333">Discovery</tspan></text></g><g class="technique T1016" transform="translate(0, 403)"><rect class="cell" height="67.16666666666666" width="79.10924369747899" fill="rgb(253, 230, 101)" stroke="#6B7279"/><polygon class="sidebar" transform="translate(0, 67.16666666666666)" points="0,0 12,0 12,0" fill="#6B7279" visibility="hidden"/><text font-size="7.931415643180349" fill="black"><tspan x="4" y="13.958333333333329">System</tspan><tspan x="4" y="28.70833333333333">Network</tspan><tspan x="4" y="43.45833333333333">Configuration</tspan><tspan x="4" y="58.20833333333333">Discovery</tspan></text></g></g><g class="subtechniques"><g class="subtechnique T1087.003" transform="translate(15, 134.33333333333331)"><rect class="cell" height="67.16666666666666" width="64.10924369747899" fill="#ff6666" stroke="#6B7279"/><rect class="cell" height="67.16666666666666" width="3" transform="translate(-3, 0)" fill="#6B7279" stroke="#6B7279"/><text font-size="11.622629051620647" fill="black"><tspan x="4" y="29.83333333333333">Email</tspan><tspan x="4" y="44.33333333333333">Account</tspan></text></g></g><g class="tactic-label"><text font-size="11.456489262371614" fill="black" font-weight="bold"><tspan text-anchor="middle" x="39.554621848739494" y="37.08333333333333">Discovery</tspan></text></g></g><g class="tactic lateral-movement" transform="translate(615.2941176470588, 0)"><g class="techniques"><g class="technique T1210" transform="translate(0, 67.16666666666666)"><rect class="cell" height="67.16666666666666" width="79.10924369747899" fill="#ff6666" stroke="#6B7279"/><polygon class="sidebar" transform="translate(0, 67.16666666666666)" points="0,0 12,0 12,0" fill="#6B7279" visibility="hidden"/><text font-size="8.59236694677871" fill="black"><tspan x="4" y="21.41666666666666">Exploitation</tspan><tspan x="4" y="36.08333333333333">of Remote</tspan><tspan x="4" y="50.74999999999999">Services</tspan></text></g><g class="technique T1021" transform="translate(0, 134.33333333333331)"><rect class="cell" height="67.16666666666666" width="79.10924369747899" fill="white" stroke="#6B7279"/><polygon class="sidebar" transform="translate(0, 67.16666666666666)" points="0,0 12,0 12,12" fill="#6B7279" visibility="visible"/><text font-size="12" fill="black"><tspan x="4" y="29.83333333333333">Remote</tspan><tspan x="4" y="44.33333333333333">Services</tspan></text></g></g><g class="subtechniques"><g class="subtechnique T1021.002" transform="translate(15, 201.5)"><rect class="cell" height="67.16666666666666" width="64.10924369747899" fill="#ff6666" stroke="#6B7279"/><rect class="cell" height="67.16666666666666" width="3" transform="translate(-3, 0)" fill="#6B7279" stroke="#6B7279"/><text font-size="7.3962184873949575" fill="black"><tspan x="4" y="21.41666666666666">SMB/Windows</tspan><tspan x="4" y="36.08333333333333">Admin</tspan><tspan x="4" y="50.74999999999999">Shares</tspan></text></g></g><g class="tactic-label"><text font-size="12" fill="black" font-weight="bold"><tspan text-anchor="middle" x="39.554621848739494" y="29.83333333333333">Lateral</tspan><tspan text-anchor="middle" x="39.554621848739494" y="44.33333333333333">Movement</tspan></text></g></g><g class="tactic collection" transform="translate(703.1932773109244, 0)"><g class="techniques"><g class="technique T1560" transform="translate(0, 67.16666666666666)"><rect class="cell" height="67.16666666666666" width="79.10924369747899" fill="#ff6666" stroke="#6B7279"/><polygon class="sidebar" transform="translate(0, 67.16666666666666)" points="0,0 12,0 12,0" fill="#6B7279" visibility="visible"/><text font-size="11.456489262371614" fill="black"><tspan x="4" y="22.41666666666666">Archive</tspan><tspan x="4" y="37.08333333333333">Collected</tspan><tspan x="4" y="51.74999999999999">Data</tspan></text></g><g class="technique T1114" transform="translate(0, 134.33333333333331)"><rect class="cell" height="67.16666666666666" width="79.10924369747899" fill="white" stroke="#6B7279"/><polygon class="sidebar" transform="translate(0, 67.16666666666666)" points="0,0 12,0 12,12" fill="#6B7279" visibility="visible"/><text font-size="10.310840336134452" fill="black"><tspan x="4" y="29.83333333333333">Email</tspan><tspan x="4" y="44.33333333333333">Collection</tspan></text></g></g><g class="subtechniques"><g class="subtechnique T1114.001" transform="translate(15, 201.5)"><rect class="cell" height="67.16666666666666" width="64.10924369747899" fill="#ff6666" stroke="#6B7279"/><rect class="cell" height="67.16666666666666" width="3" transform="translate(-3, 0)" fill="#6B7279" stroke="#6B7279"/><text font-size="8.135840336134454" fill="black"><tspan x="4" y="21.41666666666666">Local</tspan><tspan x="4" y="36.08333333333333">Email</tspan><tspan x="4" y="50.74999999999999">Collection</tspan></text></g></g><g class="tactic-label"><text font-size="10.310840336134452" fill="black" font-weight="bold"><tspan text-anchor="middle" x="39.554621848739494" y="37.08333333333333">Collection</tspan></text></g></g><g class="tactic command-and-control" transform="translate(791.09243697479, 0)"><g class="techniques"><g class="technique T1573" transform="translate(0, 67.16666666666666)"><rect class="cell" height="67.16666666666666" width="79.10924369747899" fill="white" stroke="#6B7279"/><polygon class="sidebar" transform="translate(0, 67.16666666666666)" points="0,0 12,0 12,12" fill="#6B7279" visibility="visible"/><text font-size="11.456489262371614" fill="black"><tspan x="4" y="29.83333333333333">Encrypted</tspan><tspan x="4" y="44.33333333333333">Channel</tspan></text></g><g class="technique T1571" transform="translate(0, 201.5)"><rect class="cell" height="67.16666666666666" width="79.10924369747899" fill="#ff6666" stroke="#6B7279"/><polygon class="sidebar" transform="translate(0, 67.16666666666666)" points="0,0 12,0 12,0" fill="#6B7279" visibility="hidden"/><text font-size="8.59236694677871" fill="black"><tspan x="4" y="28.83333333333333">Non-Standard</tspan><tspan x="4" y="43.33333333333333">Port</tspan></text></g></g><g class="subtechniques"><g class="subtechnique T1573.002" transform="translate(15, 134.33333333333331)"><rect class="cell" height="67.16666666666666" width="64.10924369747899" fill="#ff6666" stroke="#6B7279"/><rect class="cell" height="67.16666666666666" width="3" transform="translate(-3, 0)" fill="#6B7279" stroke="#6B7279"/><text font-size="6.779866946778711" fill="black"><tspan x="4" y="28.83333333333333">Asymmetric</tspan><tspan x="4" y="43.33333333333333">Cryptography</tspan></text></g></g><g class="tactic-label"><text font-size="12" fill="black" font-weight="bold"><tspan text-anchor="middle" x="39.554621848739494" y="22.41666666666666">Command</tspan><tspan text-anchor="middle" x="39.554621848739494" y="37.08333333333333">and</tspan><tspan text-anchor="middle" x="39.554621848739494" y="51.74999999999999">Control</tspan></text></g></g><g class="tactic exfiltration" transform="translate(878.9915966386554, 0)"><g class="techniques"><g class="technique T1041" transform="translate(0, 67.16666666666666)"><rect class="cell" height="67.16666666666666" width="79.10924369747899" fill="#ff6666" stroke="#6B7279"/><polygon class="sidebar" transform="translate(0, 67.16666666666666)" points="0,0 12,0 12,0" fill="#6B7279" visibility="hidden"/><text font-size="8.59236694677871" fill="black"><tspan x="4" y="21.41666666666666">Exfiltration</tspan><tspan x="4" y="36.08333333333333">Over C2</tspan><tspan x="4" y="50.74999999999999">Channel</tspan></text></g></g><g class="subtechniques"/><g class="tactic-label"><text font-size="8.59236694677871" fill="black" font-weight="bold"><tspan text-anchor="middle" x="39.554621848739494" y="36.08333333333333">Exfiltration</tspan></text></g></g><g class="tactic impact" transform="translate(966.890756302521, 0)"><g class="techniques"><g class="technique T1486" transform="translate(0, 67.16666666666666)"><rect class="cell" height="67.16666666666666" width="79.10924369747899" fill="rgb(253, 230, 101)" stroke="#6B7279"/><polygon class="sidebar" transform="translate(0, 67.16666666666666)" points="0,0 12,0 12,0" fill="#6B7279" visibility="hidden"/><text font-size="11.456489262371614" fill="black"><tspan x="4" y="14.958333333333329">Data</tspan><tspan x="4" y="29.70833333333333">Encrypted</tspan><tspan x="4" y="44.45833333333333">for</tspan><tspan x="4" y="59.20833333333333">Impact</tspan></text></g><g class="technique T1490" transform="translate(0, 134.33333333333331)"><rect class="cell" height="67.16666666666666" width="79.10924369747899" fill="rgb(253, 230, 101)" stroke="#6B7279"/><polygon class="sidebar" transform="translate(0, 67.16666666666666)" points="0,0 12,0 12,0" fill="#6B7279" visibility="hidden"/><text font-size="12" fill="black"><tspan x="4" y="22.41666666666666">Inhibit</tspan><tspan x="4" y="37.08333333333333">System</tspan><tspan x="4" y="51.74999999999999">Recovery</tspan></text></g><g class="technique T1489" transform="translate(0, 201.5)"><rect class="cell" height="67.16666666666666" width="79.10924369747899" fill="rgb(253, 230, 101)" stroke="#6B7279"/><polygon class="sidebar" transform="translate(0, 67.16666666666666)" points="0,0 12,0 12,0" fill="#6B7279" visibility="hidden"/><text font-size="12" fill="black"><tspan x="4" y="29.83333333333333">Service</tspan><tspan x="4" y="44.33333333333333">Stop</tspan></text></g></g><g class="subtechniques"/><g class="tactic-label"><text font-size="12" fill="black" font-weight="bold"><tspan text-anchor="middle" x="39.554621848739494" y="37.08333333333333">Impact</tspan></text></g></g></g></g></g></svg>