<?xml version="1.0" standalone="no"?>
<svg width="1056" height="816" xmlns="http://www.w3.org/2000/svg" id="svgvm0"><g transform="translate(5,5)" style="font-family: sans-serif;"><g transform="translate(0,1)"><g><g class="tactic execution" transform="translate(0, 0)"><g class="techniques"><g class="technique T1059" transform="translate(0, 40.300000000000004)"><rect class="cell" height="40.300000000000004" width="159.5593220338983" fill="#c7e9c0" stroke="#6B7279"/><polygon class="sidebar" transform="translate(0, 40.300000000000004)" points="0,0 12,0 12,12" fill="#6B7279" visibility="visible"/><text font-size="10.74666666666667" fill="black"><tspan x="4" y="10.55">Command and</tspan><tspan x="4" y="23.650000000000002">Scripting</tspan><tspan x="4" y="36.75">Interpreter</tspan></text></g><g class="technique T1106" transform="translate(0, 120.89999999999999)"><rect class="cell" height="40.300000000000004" width="159.5593220338983" fill="#c7e9c0" stroke="#6B7279"/><polygon class="sidebar" transform="translate(0, 40.300000000000004)" points="0,0 12,0 12,0" fill="#6B7279" visibility="hidden"/><text font-size="12" fill="black"><tspan x="4" y="23.650000000000002">Native API</tspan></text></g></g><g class="subtechniques"><g class="subtechnique T1059.003" transform="translate(15, 80.60000000000001)"><rect class="cell" height="40.300000000000004" width="144.5593220338983" fill="white" stroke="#6B7279"/><rect class="cell" height="40.300000000000004" width="3" transform="translate(-3, 0)" fill="#6B7279" stroke="#6B7279"/><text font-size="12" fill="black"><tspan x="4" y="16.400000000000002">Windows Command</tspan><tspan x="4" y="30.900000000000002">Shell</tspan></text></g></g><g class="tactic-label"><text font-size="12" fill="black" font-weight="bold"><tspan text-anchor="middle" x="79.77966101694915" y="23.650000000000002">Execution</tspan></text></g></g><g class="tactic persistence" transform="translate(177.28813559322032, 0)"><g class="techniques"><g class="technique T1547" transform="translate(0, 40.300000000000004)"><rect class="cell" height="40.300000000000004" width="159.5593220338983" fill="#c7e9c0" stroke="#6B7279"/><polygon class="sidebar" transform="translate(0, 40.300000000000004)" points="0,0 12,0 12,12" fill="#6B7279" visibility="visible"/><text font-size="11.56636931311329" fill="black"><tspan x="4" y="16.400000000000002">Boot or Logon</tspan><tspan x="4" y="30.900000000000002">Autostart Execution</tspan></text></g></g><g class="subtechniques"><g class="subtechnique T1547.001" transform="translate(15, 80.60000000000001)"><rect class="cell" height="40.300000000000004" width="144.5593220338983" fill="white" stroke="#6B7279"/><rect class="cell" height="40.300000000000004" width="3" transform="translate(-3, 0)" fill="#6B7279" stroke="#6B7279"/><text font-size="11.647706879361913" fill="black"><tspan x="4" y="16.400000000000002">Registry Run Keys</tspan><tspan x="4" y="30.900000000000002">/ Startup Folder</tspan></text></g></g><g class="tactic-label"><text font-size="12" fill="black" font-weight="bold"><tspan text-anchor="middle" x="79.77966101694915" y="23.650000000000002">Persistence</tspan></text></g></g><g class="tactic privilege-escalation" transform="translate(354.57627118644064, 0)"><g class="techniques"><g class="technique T1134" transform="translate(0, 40.300000000000004)"><rect class="cell" height="40.300000000000004" width="159.5593220338983" fill="#c7e9c0" stroke="#6B7279"/><polygon class="sidebar" transform="translate(0, 40.300000000000004)" points="0,0 12,0 12,12" fill="#6B7279" visibility="visible"/><text font-size="12" fill="black"><tspan x="4" y="16.400000000000002">Access Token</tspan><tspan x="4" y="30.900000000000002">Manipulation</tspan></text></g><g class="technique T1547" transform="translate(0, 282.09999999999997)"><rect class="cell" height="40.300000000000004" width="159.5593220338983" fill="#c7e9c0" stroke="#6B7279"/><polygon class="sidebar" transform="translate(0, 40.300000000000004)" points="0,0 12,0 12,12" fill="#6B7279" visibility="visible"/><text font-size="11.56636931311329" fill="black"><tspan x="4" y="16.400000000000002">Boot or Logon</tspan><tspan x="4" y="30.900000000000002">Autostart Execution</tspan></text></g><g class="technique T1055" transform="translate(0, 362.7)"><rect class="cell" height="40.300000000000004" width="159.5593220338983" fill="#c7e9c0" stroke="#6B7279"/><polygon class="sidebar" transform="translate(0, 40.300000000000004)" points="0,0 12,0 12,12" fill="#6B7279" visibility="visible"/><text font-size="12" fill="black"><tspan x="4" y="23.650000000000002">Process Injection</tspan></text></g></g><g class="subtechniques"><g class="subtechnique T1134.001" transform="translate(15, 80.60000000000001)"><rect class="cell" height="40.300000000000004" width="144.5593220338983" fill="white" stroke="#6B7279"/><rect class="cell" height="40.300000000000004" width="3" transform="translate(-3, 0)" fill="#6B7279" stroke="#6B7279"/><text font-size="10.421632471008028" fill="black"><tspan x="4" y="16.400000000000002">Token</tspan><tspan x="4" y="30.900000000000002">Impersonation/Theft</tspan></text></g><g class="subtechnique T1134.002" transform="translate(15, 120.89999999999999)"><rect class="cell" height="40.300000000000004" width="144.5593220338983" fill="white" stroke="#6B7279"/><rect class="cell" height="40.300000000000004" width="3" transform="translate(-3, 0)" fill="#6B7279" stroke="#6B7279"/><text font-size="12" fill="black"><tspan x="4" y="16.400000000000002">Create Process</tspan><tspan x="4" y="30.900000000000002">with Token</tspan></text></g><g class="subtechnique T1134.003" transform="translate(15, 161.20000000000002)"><rect class="cell" height="40.300000000000004" width="144.5593220338983" fill="white" stroke="#6B7279"/><rect class="cell" height="40.300000000000004" width="3" transform="translate(-3, 0)" fill="#6B7279" stroke="#6B7279"/><text font-size="11.647706879361913" fill="black"><tspan x="4" y="16.400000000000002">Make and</tspan><tspan x="4" y="30.900000000000002">Impersonate Token</tspan></text></g><g class="subtechnique T1134.004" transform="translate(15, 201.5)"><rect class="cell" height="40.300000000000004" width="144.5593220338983" fill="white" stroke="#6B7279"/><rect class="cell" height="40.300000000000004" width="3" transform="translate(-3, 0)" fill="#6B7279" stroke="#6B7279"/><text font-size="12" fill="black"><tspan x="4" y="16.400000000000002">Parent PID</tspan><tspan x="4" y="30.900000000000002">Spoofing</tspan></text></g><g class="subtechnique T1134.005" transform="translate(15, 241.79999999999998)"><rect class="cell" height="40.300000000000004" width="144.5593220338983" fill="white" stroke="#6B7279"/><rect class="cell" height="40.300000000000004" width="3" transform="translate(-3, 0)" fill="#6B7279" stroke="#6B7279"/><text font-size="12" fill="black"><tspan x="4" y="16.400000000000002">SID-History</tspan><tspan x="4" y="30.900000000000002">Injection</tspan></text></g><g class="subtechnique T1547.001" transform="translate(15, 322.40000000000003)"><rect class="cell" height="40.300000000000004" width="144.5593220338983" fill="white" stroke="#6B7279"/><rect class="cell" height="40.300000000000004" width="3" transform="translate(-3, 0)" fill="#6B7279" stroke="#6B7279"/><text font-size="11.647706879361913" fill="black"><tspan x="4" y="16.400000000000002">Registry Run Keys</tspan><tspan x="4" y="30.900000000000002">/ Startup Folder</tspan></text></g><g class="subtechnique T1055.001" transform="translate(15, 403)"><rect class="cell" height="40.300000000000004" width="144.5593220338983" fill="white" stroke="#6B7279"/><rect class="cell" height="40.300000000000004" width="3" transform="translate(-3, 0)" fill="#6B7279" stroke="#6B7279"/><text font-size="11.647706879361913" fill="black"><tspan x="4" y="16.400000000000002">Dynamic-link</tspan><tspan x="4" y="30.900000000000002">Library Injection</tspan></text></g><g class="subtechnique T1055.002" transform="translate(15, 443.3)"><rect class="cell" height="40.300000000000004" width="144.5593220338983" fill="white" stroke="#6B7279"/><rect class="cell" height="40.300000000000004" width="3" transform="translate(-3, 0)" fill="#6B7279" stroke="#6B7279"/><text font-size="10.74666666666667" fill="black"><tspan x="4" y="10.55">Portable</tspan><tspan x="4" y="23.650000000000002">Executable</tspan><tspan x="4" y="36.75">Injection</tspan></text></g><g class="subtechnique T1055.003" transform="translate(15, 483.59999999999997)"><rect class="cell" height="40.300000000000004" width="144.5593220338983" fill="white" stroke="#6B7279"/><rect class="cell" height="40.300000000000004" width="3" transform="translate(-3, 0)" fill="#6B7279" stroke="#6B7279"/><text font-size="12" fill="black"><tspan x="4" y="16.400000000000002">Thread Execution</tspan><tspan x="4" y="30.900000000000002">Hijacking</tspan></text></g><g class="subtechnique T1055.004" transform="translate(15, 523.9)"><rect class="cell" height="40.300000000000004" width="144.5593220338983" fill="white" stroke="#6B7279"/><rect class="cell" height="40.300000000000004" width="3" transform="translate(-3, 0)" fill="#6B7279" stroke="#6B7279"/><text font-size="12" fill="black"><tspan x="4" y="16.400000000000002">Asynchronous</tspan><tspan x="4" y="30.900000000000002">Procedure Call</tspan></text></g><g class="subtechnique T1055.005" transform="translate(15, 564.1999999999999)"><rect class="cell" height="40.300000000000004" width="144.5593220338983" fill="white" stroke="#6B7279"/><rect class="cell" height="40.300000000000004" width="3" transform="translate(-3, 0)" fill="#6B7279" stroke="#6B7279"/><text font-size="12" fill="black"><tspan x="4" y="16.400000000000002">Thread Local</tspan><tspan x="4" y="30.900000000000002">Storage</tspan></text></g><g class="subtechnique T1055.011" transform="translate(15, 604.5)"><rect class="cell" height="40.300000000000004" width="144.5593220338983" fill="white" stroke="#6B7279"/><rect class="cell" height="40.300000000000004" width="3" transform="translate(-3, 0)" fill="#6B7279" stroke="#6B7279"/><text font-size="12" fill="black"><tspan x="4" y="16.400000000000002">Extra Window</tspan><tspan x="4" y="30.900000000000002">Memory Injection</tspan></text></g><g class="subtechnique T1055.013" transform="translate(15, 644.8000000000001)"><rect class="cell" height="40.300000000000004" width="144.5593220338983" fill="white" stroke="#6B7279"/><rect class="cell" height="40.300000000000004" width="3" transform="translate(-3, 0)" fill="#6B7279" stroke="#6B7279"/><text font-size="12" fill="black"><tspan x="4" y="16.400000000000002">Process</tspan><tspan x="4" y="30.900000000000002">Doppelgänging</tspan></text></g><g class="subtechnique T1055.012" transform="translate(15, 685.1)"><rect class="cell" height="40.300000000000004" width="144.5593220338983" fill="white" stroke="#6B7279"/><rect class="cell" height="40.300000000000004" width="3" transform="translate(-3, 0)" fill="#6B7279" stroke="#6B7279"/><text font-size="12" fill="black"><tspan x="4" y="16.400000000000002">Process</tspan><tspan x="4" y="30.900000000000002">Hollowing</tspan></text></g></g><g class="tactic-label"><text font-size="12" fill="black" font-weight="bold"><tspan text-anchor="middle" x="79.77966101694915" y="16.400000000000002">Privilege</tspan><tspan text-anchor="middle" x="79.77966101694915" y="30.900000000000002">Escalation</tspan></text></g></g><g class="tactic defense-evasion" transform="translate(531.864406779661, 0)"><g class="techniques"><g class="technique T1134" transform="translate(0, 40.300000000000004)"><rect class="cell" height="40.300000000000004" width="159.5593220338983" fill="#c7e9c0" stroke="#6B7279"/><polygon class="sidebar" transform="translate(0, 40.300000000000004)" points="0,0 12,0 12,12" fill="#6B7279" visibility="visible"/><text font-size="12" fill="black"><tspan x="4" y="16.400000000000002">Access Token</tspan><tspan x="4" y="30.900000000000002">Manipulation</tspan></text></g><g class="technique T1562" transform="translate(0, 282.09999999999997)"><rect class="cell" height="40.300000000000004" width="159.5593220338983" fill="#c7e9c0" stroke="#6B7279"/><polygon class="sidebar" transform="translate(0, 40.300000000000004)" points="0,0 12,0 12,12" fill="#6B7279" visibility="visible"/><text font-size="12" fill="black"><tspan x="4" y="23.650000000000002">Impair Defenses</tspan></text></g><g class="technique T1036" transform="translate(0, 362.7)"><rect class="cell" height="40.300000000000004" width="159.5593220338983" fill="#c7e9c0" stroke="#6B7279"/><polygon class="sidebar" transform="translate(0, 40.300000000000004)" points="0,0 12,0 12,12" fill="#6B7279" visibility="visible"/><text font-size="12" fill="black"><tspan x="4" y="23.650000000000002">Masquerading</tspan></text></g><g class="technique T1055" transform="translate(0, 443.3)"><rect class="cell" height="40.300000000000004" width="159.5593220338983" fill="#c7e9c0" stroke="#6B7279"/><polygon class="sidebar" transform="translate(0, 40.300000000000004)" points="0,0 12,0 12,12" fill="#6B7279" visibility="visible"/><text font-size="12" fill="black"><tspan x="4" y="23.650000000000002">Process Injection</tspan></text></g></g><g class="subtechniques"><g class="subtechnique T1134.001" transform="translate(15, 80.60000000000001)"><rect class="cell" height="40.300000000000004" width="144.5593220338983" fill="white" stroke="#6B7279"/><rect class="cell" height="40.300000000000004" width="3" transform="translate(-3, 0)" fill="#6B7279" stroke="#6B7279"/><text font-size="10.421632471008028" fill="black"><tspan x="4" y="16.400000000000002">Token</tspan><tspan x="4" y="30.900000000000002">Impersonation/Theft</tspan></text></g><g class="subtechnique T1134.002" transform="translate(15, 120.89999999999999)"><rect class="cell" height="40.300000000000004" width="144.5593220338983" fill="white" stroke="#6B7279"/><rect class="cell" height="40.300000000000004" width="3" transform="translate(-3, 0)" fill="#6B7279" stroke="#6B7279"/><text font-size="12" fill="black"><tspan x="4" y="16.400000000000002">Create Process</tspan><tspan x="4" y="30.900000000000002">with Token</tspan></text></g><g class="subtechnique T1134.003" transform="translate(15, 161.20000000000002)"><rect class="cell" height="40.300000000000004" width="144.5593220338983" fill="white" stroke="#6B7279"/><rect class="cell" height="40.300000000000004" width="3" transform="translate(-3, 0)" fill="#6B7279" stroke="#6B7279"/><text font-size="11.647706879361913" fill="black"><tspan x="4" y="16.400000000000002">Make and</tspan><tspan x="4" y="30.900000000000002">Impersonate Token</tspan></text></g><g class="subtechnique T1134.004" transform="translate(15, 201.5)"><rect class="cell" height="40.300000000000004" width="144.5593220338983" fill="white" stroke="#6B7279"/><rect class="cell" height="40.300000000000004" width="3" transform="translate(-3, 0)" fill="#6B7279" stroke="#6B7279"/><text font-size="12" fill="black"><tspan x="4" y="16.400000000000002">Parent PID</tspan><tspan x="4" y="30.900000000000002">Spoofing</tspan></text></g><g class="subtechnique T1134.005" transform="translate(15, 241.79999999999998)"><rect class="cell" height="40.300000000000004" width="144.5593220338983" fill="white" stroke="#6B7279"/><rect class="cell" height="40.300000000000004" width="3" transform="translate(-3, 0)" fill="#6B7279" stroke="#6B7279"/><text font-size="12" fill="black"><tspan x="4" y="16.400000000000002">SID-History</tspan><tspan x="4" y="30.900000000000002">Injection</tspan></text></g><g class="subtechnique T1562.001" transform="translate(15, 322.40000000000003)"><rect class="cell" height="40.300000000000004" width="144.5593220338983" fill="white" stroke="#6B7279"/><rect class="cell" height="40.300000000000004" width="3" transform="translate(-3, 0)" fill="#6B7279" stroke="#6B7279"/><text font-size="12" fill="black"><tspan x="4" y="16.400000000000002">Disable or</tspan><tspan x="4" y="30.900000000000002">Modify Tools</tspan></text></g><g class="subtechnique T1036.005" transform="translate(15, 403)"><rect class="cell" height="40.300000000000004" width="144.5593220338983" fill="white" stroke="#6B7279"/><rect class="cell" height="40.300000000000004" width="3" transform="translate(-3, 0)" fill="#6B7279" stroke="#6B7279"/><text font-size="12" fill="black"><tspan x="4" y="16.400000000000002">Match Legitimate</tspan><tspan x="4" y="30.900000000000002">Name or Location</tspan></text></g><g class="subtechnique T1055.001" transform="translate(15, 483.59999999999997)"><rect class="cell" height="40.300000000000004" width="144.5593220338983" fill="white" stroke="#6B7279"/><rect class="cell" height="40.300000000000004" width="3" transform="translate(-3, 0)" fill="#6B7279" stroke="#6B7279"/><text font-size="11.647706879361913" fill="black"><tspan x="4" y="16.400000000000002">Dynamic-link</tspan><tspan x="4" y="30.900000000000002">Library Injection</tspan></text></g><g class="subtechnique T1055.002" transform="translate(15, 523.9)"><rect class="cell" height="40.300000000000004" width="144.5593220338983" fill="white" stroke="#6B7279"/><rect class="cell" height="40.300000000000004" width="3" transform="translate(-3, 0)" fill="#6B7279" stroke="#6B7279"/><text font-size="10.74666666666667" fill="black"><tspan x="4" y="10.55">Portable</tspan><tspan x="4" y="23.650000000000002">Executable</tspan><tspan x="4" y="36.75">Injection</tspan></text></g><g class="subtechnique T1055.003" transform="translate(15, 564.1999999999999)"><rect class="cell" height="40.300000000000004" width="144.5593220338983" fill="white" stroke="#6B7279"/><rect class="cell" height="40.300000000000004" width="3" transform="translate(-3, 0)" fill="#6B7279" stroke="#6B7279"/><text font-size="12" fill="black"><tspan x="4" y="16.400000000000002">Thread Execution</tspan><tspan x="4" y="30.900000000000002">Hijacking</tspan></text></g><g class="subtechnique T1055.004" transform="translate(15, 604.5)"><rect class="cell" height="40.300000000000004" width="144.5593220338983" fill="white" stroke="#6B7279"/><rect class="cell" height="40.300000000000004" width="3" transform="translate(-3, 0)" fill="#6B7279" stroke="#6B7279"/><text font-size="12" fill="black"><tspan x="4" y="16.400000000000002">Asynchronous</tspan><tspan x="4" y="30.900000000000002">Procedure Call</tspan></text></g><g class="subtechnique T1055.005" transform="translate(15, 644.8000000000001)"><rect class="cell" height="40.300000000000004" width="144.5593220338983" fill="white" stroke="#6B7279"/><rect class="cell" height="40.300000000000004" width="3" transform="translate(-3, 0)" fill="#6B7279" stroke="#6B7279"/><text font-size="12" fill="black"><tspan x="4" y="16.400000000000002">Thread Local</tspan><tspan x="4" y="30.900000000000002">Storage</tspan></text></g><g class="subtechnique T1055.011" transform="translate(15, 685.1)"><rect class="cell" height="40.300000000000004" width="144.5593220338983" fill="white" stroke="#6B7279"/><rect class="cell" height="40.300000000000004" width="3" transform="translate(-3, 0)" fill="#6B7279" stroke="#6B7279"/><text font-size="12" fill="black"><tspan x="4" y="16.400000000000002">Extra Window</tspan><tspan x="4" y="30.900000000000002">Memory Injection</tspan></text></g><g class="subtechnique T1055.013" transform="translate(15, 725.4)"><rect class="cell" height="40.300000000000004" width="144.5593220338983" fill="white" stroke="#6B7279"/><rect class="cell" height="40.300000000000004" width="3" transform="translate(-3, 0)" fill="#6B7279" stroke="#6B7279"/><text font-size="12" fill="black"><tspan x="4" y="16.400000000000002">Process</tspan><tspan x="4" y="30.900000000000002">Doppelgänging</tspan></text></g><g class="subtechnique T1055.012" transform="translate(15, 765.6999999999999)"><rect class="cell" height="40.300000000000004" width="144.5593220338983" fill="white" stroke="#6B7279"/><rect class="cell" height="40.300000000000004" width="3" transform="translate(-3, 0)" fill="#6B7279" stroke="#6B7279"/><text font-size="12" fill="black"><tspan x="4" y="16.400000000000002">Process</tspan><tspan x="4" y="30.900000000000002">Hollowing</tspan></text></g></g><g class="tactic-label"><text font-size="12" fill="black" font-weight="bold"><tspan text-anchor="middle" x="79.77966101694915" y="23.650000000000002">Defense Evasion</tspan></text></g></g><g class="tactic discovery" transform="translate(709.1525423728813, 0)"><g class="techniques"><g class="technique T1083" transform="translate(0, 40.300000000000004)"><rect class="cell" height="40.300000000000004" width="159.5593220338983" fill="#c7e9c0" stroke="#6B7279"/><polygon class="sidebar" transform="translate(0, 40.300000000000004)" points="0,0 12,0 12,0" fill="#6B7279" visibility="hidden"/><text font-size="12" fill="black"><tspan x="4" y="16.400000000000002">File and Directory</tspan><tspan x="4" y="30.900000000000002">Discovery</tspan></text></g><g class="technique T1057" transform="translate(0, 80.60000000000001)"><rect class="cell" height="40.300000000000004" width="159.5593220338983" fill="#c7e9c0" stroke="#6B7279"/><polygon class="sidebar" transform="translate(0, 40.300000000000004)" points="0,0 12,0 12,0" fill="#6B7279" visibility="hidden"/><text font-size="12" fill="black"><tspan x="4" y="23.650000000000002">Process Discovery</tspan></text></g><g class="technique T1016" transform="translate(0, 120.89999999999999)"><rect class="cell" height="40.300000000000004" width="159.5593220338983" fill="#c7e9c0" stroke="#6B7279"/><polygon class="sidebar" transform="translate(0, 40.300000000000004)" points="0,0 12,0 12,0" fill="#6B7279" visibility="hidden"/><text font-size="10.74666666666667" fill="black"><tspan x="4" y="10.55">System Network</tspan><tspan x="4" y="23.650000000000002">Configuration</tspan><tspan x="4" y="36.75">Discovery</tspan></text></g></g><g class="subtechniques"/><g class="tactic-label"><text font-size="12" fill="black" font-weight="bold"><tspan text-anchor="middle" x="79.77966101694915" y="23.650000000000002">Discovery</tspan></text></g></g><g class="tactic impact" transform="translate(886.4406779661016, 0)"><g class="techniques"><g class="technique T1486" transform="translate(0, 40.300000000000004)"><rect class="cell" height="40.300000000000004" width="159.5593220338983" fill="#c7e9c0" stroke="#6B7279"/><polygon class="sidebar" transform="translate(0, 40.300000000000004)" points="0,0 12,0 12,0" fill="#6B7279" visibility="hidden"/><text font-size="12" fill="black"><tspan x="4" y="16.400000000000002">Data Encrypted for</tspan><tspan x="4" y="30.900000000000002">Impact</tspan></text></g><g class="technique T1490" transform="translate(0, 80.60000000000001)"><rect class="cell" height="40.300000000000004" width="159.5593220338983" fill="#c7e9c0" stroke="#6B7279"/><polygon class="sidebar" transform="translate(0, 40.300000000000004)" points="0,0 12,0 12,0" fill="#6B7279" visibility="hidden"/><text font-size="12" fill="black"><tspan x="4" y="16.400000000000002">Inhibit System</tspan><tspan x="4" y="30.900000000000002">Recovery</tspan></text></g><g class="technique T1489" transform="translate(0, 120.89999999999999)"><rect class="cell" height="40.300000000000004" width="159.5593220338983" fill="#c7e9c0" stroke="#6B7279"/><polygon class="sidebar" transform="translate(0, 40.300000000000004)" points="0,0 12,0 12,0" fill="#6B7279" visibility="hidden"/><text font-size="12" fill="black"><tspan x="4" y="23.650000000000002">Service Stop</tspan></text></g></g><g class="subtechniques"/><g class="tactic-label"><text font-size="12" fill="black" font-weight="bold"><tspan text-anchor="middle" x="79.77966101694915" y="23.650000000000002">Impact</tspan></text></g></g></g></g></g></svg>