<?xml version="1.0" standalone="no"?>
<svg width="1056" height="816" xmlns="http://www.w3.org/2000/svg" id="svgvm0"><g transform="translate(5,5)" style="font-family: sans-serif;"><g transform="translate(0,1)"><g><g class="tactic initial-access" transform="translate(0, 0)"><g class="techniques"><g class="technique T1566" transform="translate(0, 100.75)"><rect class="cell" height="100.75" width="105.7752808988764" fill="#c7e9c0" stroke="#6B7279"/><polygon class="sidebar" transform="translate(0, 100.75)" points="0,0 12,0 12,12" fill="#6B7279" visibility="visible"/><text font-size="12" fill="black"><tspan x="4" y="53.875">Phishing</tspan></text></g></g><g class="subtechniques"><g class="subtechnique T1566.001" transform="translate(15, 201.5)"><rect class="cell" height="100.75" width="90.7752808988764" fill="white" stroke="#6B7279"/><rect class="cell" height="100.75" width="3" transform="translate(-3, 0)" fill="#6B7279" stroke="#6B7279"/><text font-size="9.232627484874675" fill="black"><tspan x="4" y="45.625">Spearphishing</tspan><tspan x="4" y="60.125">Attachment</tspan></text></g></g><g class="tactic-label"><text font-size="12" fill="black" font-weight="bold"><tspan text-anchor="middle" x="52.8876404494382" y="46.625">Initial</tspan><tspan text-anchor="middle" x="52.8876404494382" y="61.125">Access</tspan></text></g></g><g class="tactic execution" transform="translate(117.52808988764045, 0)"><g class="techniques"><g class="technique T1059" transform="translate(0, 100.75)"><rect class="cell" height="100.75" width="105.7752808988764" fill="#c7e9c0" stroke="#6B7279"/><polygon class="sidebar" transform="translate(0, 100.75)" points="0,0 12,0 12,12" fill="#6B7279" visibility="visible"/><text font-size="12" fill="black"><tspan x="4" y="39.20833333333333">Command and</tspan><tspan x="4" y="53.875">Scripting</tspan><tspan x="4" y="68.54166666666666">Interpreter</tspan></text></g><g class="technique T1106" transform="translate(0, 302.25)"><rect class="cell" height="100.75" width="105.7752808988764" fill="#c7e9c0" stroke="#6B7279"/><polygon class="sidebar" transform="translate(0, 100.75)" points="0,0 12,0 12,0" fill="#6B7279" visibility="hidden"/><text font-size="12" fill="black"><tspan x="4" y="53.875">Native API</tspan></text></g><g class="technique T1053" transform="translate(0, 403)"><rect class="cell" height="100.75" width="105.7752808988764" fill="#c7e9c0" stroke="#6B7279"/><polygon class="sidebar" transform="translate(0, 100.75)" points="0,0 12,0 12,12" fill="#6B7279" visibility="visible"/><text font-size="12" fill="black"><tspan x="4" y="46.625">Scheduled</tspan><tspan x="4" y="61.125">Task/Job</tspan></text></g><g class="technique T1204" transform="translate(0, 604.5)"><rect class="cell" height="100.75" width="105.7752808988764" fill="#c7e9c0" stroke="#6B7279"/><polygon class="sidebar" transform="translate(0, 100.75)" points="0,0 12,0 12,12" fill="#6B7279" visibility="visible"/><text font-size="12" fill="black"><tspan x="4" y="46.625">User</tspan><tspan x="4" y="61.125">Execution</tspan></text></g></g><g class="subtechniques"><g class="subtechnique T1059.003" transform="translate(15, 201.5)"><rect class="cell" height="100.75" width="90.7752808988764" fill="white" stroke="#6B7279"/><rect class="cell" height="100.75" width="3" transform="translate(-3, 0)" fill="#6B7279" stroke="#6B7279"/><text font-size="12" fill="black"><tspan x="4" y="39.20833333333333">Windows</tspan><tspan x="4" y="53.875">Command</tspan><tspan x="4" y="68.54166666666666">Shell</tspan></text></g><g class="subtechnique T1053.005" transform="translate(15, 503.75)"><rect class="cell" height="100.75" width="90.7752808988764" fill="white" stroke="#6B7279"/><rect class="cell" height="100.75" width="3" transform="translate(-3, 0)" fill="#6B7279" stroke="#6B7279"/><text font-size="12" fill="black"><tspan x="4" y="46.625">Scheduled</tspan><tspan x="4" y="61.125">Task</tspan></text></g><g class="subtechnique T1204.002" transform="translate(15, 705.25)"><rect class="cell" height="100.75" width="90.7752808988764" fill="white" stroke="#6B7279"/><rect class="cell" height="100.75" width="3" transform="translate(-3, 0)" fill="#6B7279" stroke="#6B7279"/><text font-size="12" fill="black"><tspan x="4" y="46.625">Malicious</tspan><tspan x="4" y="61.125">File</tspan></text></g></g><g class="tactic-label"><text font-size="12" fill="black" font-weight="bold"><tspan text-anchor="middle" x="52.8876404494382" y="53.875">Execution</tspan></text></g></g><g class="tactic persistence" transform="translate(235.0561797752809, 0)"><g class="techniques"><g class="technique T1547" transform="translate(0, 100.75)"><rect class="cell" height="100.75" width="105.7752808988764" fill="#c7e9c0" stroke="#6B7279"/><polygon class="sidebar" transform="translate(0, 100.75)" points="0,0 12,0 12,12" fill="#6B7279" visibility="visible"/><text font-size="12" fill="black"><tspan x="4" y="31.75">Boot or</tspan><tspan x="4" y="46.5">Logon</tspan><tspan x="4" y="61.25">Autostart</tspan><tspan x="4" y="76">Execution</tspan></text></g><g class="technique T1053" transform="translate(0, 302.25)"><rect class="cell" height="100.75" width="105.7752808988764" fill="#c7e9c0" stroke="#6B7279"/><polygon class="sidebar" transform="translate(0, 100.75)" points="0,0 12,0 12,12" fill="#6B7279" visibility="visible"/><text font-size="12" fill="black"><tspan x="4" y="46.625">Scheduled</tspan><tspan x="4" y="61.125">Task/Job</tspan></text></g></g><g class="subtechniques"><g class="subtechnique T1547.001" transform="translate(15, 201.5)"><rect class="cell" height="100.75" width="90.7752808988764" fill="white" stroke="#6B7279"/><rect class="cell" height="100.75" width="3" transform="translate(-3, 0)" fill="#6B7279" stroke="#6B7279"/><text font-size="12" fill="black"><tspan x="4" y="31.75">Registry</tspan><tspan x="4" y="46.5">Run Keys /</tspan><tspan x="4" y="61.25">Startup</tspan><tspan x="4" y="76">Folder</tspan></text></g><g class="subtechnique T1053.005" transform="translate(15, 403)"><rect class="cell" height="100.75" width="90.7752808988764" fill="white" stroke="#6B7279"/><rect class="cell" height="100.75" width="3" transform="translate(-3, 0)" fill="#6B7279" stroke="#6B7279"/><text font-size="12" fill="black"><tspan x="4" y="46.625">Scheduled</tspan><tspan x="4" y="61.125">Task</tspan></text></g></g><g class="tactic-label"><text font-size="12" fill="black" font-weight="bold"><tspan text-anchor="middle" x="52.8876404494382" y="53.875">Persistence</tspan></text></g></g><g class="tactic privilege-escalation" transform="translate(352.5842696629213, 0)"><g class="techniques"><g class="technique T1547" transform="translate(0, 100.75)"><rect class="cell" height="100.75" width="105.7752808988764" fill="#c7e9c0" stroke="#6B7279"/><polygon class="sidebar" transform="translate(0, 100.75)" points="0,0 12,0 12,12" fill="#6B7279" visibility="visible"/><text font-size="12" fill="black"><tspan x="4" y="31.75">Boot or</tspan><tspan x="4" y="46.5">Logon</tspan><tspan x="4" y="61.25">Autostart</tspan><tspan x="4" y="76">Execution</tspan></text></g><g class="technique T1055" transform="translate(0, 302.25)"><rect class="cell" height="100.75" width="105.7752808988764" fill="#c7e9c0" stroke="#6B7279"/><polygon class="sidebar" transform="translate(0, 100.75)" points="0,0 12,0 12,12" fill="#6B7279" visibility="visible"/><text font-size="12" fill="black"><tspan x="4" y="46.625">Process</tspan><tspan x="4" y="61.125">Injection</tspan></text></g><g class="technique T1053" transform="translate(0, 503.75)"><rect class="cell" height="100.75" width="105.7752808988764" fill="#c7e9c0" stroke="#6B7279"/><polygon class="sidebar" transform="translate(0, 100.75)" points="0,0 12,0 12,12" fill="#6B7279" visibility="visible"/><text font-size="12" fill="black"><tspan x="4" y="46.625">Scheduled</tspan><tspan x="4" y="61.125">Task/Job</tspan></text></g></g><g class="subtechniques"><g class="subtechnique T1547.001" transform="translate(15, 201.5)"><rect class="cell" height="100.75" width="90.7752808988764" fill="white" stroke="#6B7279"/><rect class="cell" height="100.75" width="3" transform="translate(-3, 0)" fill="#6B7279" stroke="#6B7279"/><text font-size="12" fill="black"><tspan x="4" y="31.75">Registry</tspan><tspan x="4" y="46.5">Run Keys /</tspan><tspan x="4" y="61.25">Startup</tspan><tspan x="4" y="76">Folder</tspan></text></g><g class="subtechnique T1055.012" transform="translate(15, 403)"><rect class="cell" height="100.75" width="90.7752808988764" fill="white" stroke="#6B7279"/><rect class="cell" height="100.75" width="3" transform="translate(-3, 0)" fill="#6B7279" stroke="#6B7279"/><text font-size="12" fill="black"><tspan x="4" y="46.625">Process</tspan><tspan x="4" y="61.125">Hollowing</tspan></text></g><g class="subtechnique T1053.005" transform="translate(15, 604.5)"><rect class="cell" height="100.75" width="90.7752808988764" fill="white" stroke="#6B7279"/><rect class="cell" height="100.75" width="3" transform="translate(-3, 0)" fill="#6B7279" stroke="#6B7279"/><text font-size="12" fill="black"><tspan x="4" y="46.625">Scheduled</tspan><tspan x="4" y="61.125">Task</tspan></text></g></g><g class="tactic-label"><text font-size="12" fill="black" font-weight="bold"><tspan text-anchor="middle" x="52.8876404494382" y="46.625">Privilege</tspan><tspan text-anchor="middle" x="52.8876404494382" y="61.125">Escalation</tspan></text></g></g><g class="tactic defense-evasion" transform="translate(470.1123595505618, 0)"><g class="techniques"><g class="technique T1140" transform="translate(0, 100.75)"><rect class="cell" height="100.75" width="105.7752808988764" fill="#c7e9c0" stroke="#6B7279"/><polygon class="sidebar" transform="translate(0, 100.75)" points="0,0 12,0 12,0" fill="#6B7279" visibility="hidden"/><text font-size="7.8763420724094875" fill="black"><tspan x="4" y="38.20833333333333">Deobfuscate/Decode</tspan><tspan x="4" y="52.875">Files or</tspan><tspan x="4" y="67.54166666666666">Information</tspan></text></g><g class="technique T1562" transform="translate(0, 201.5)"><rect class="cell" height="100.75" width="105.7752808988764" fill="#c7e9c0" stroke="#6B7279"/><polygon class="sidebar" transform="translate(0, 100.75)" points="0,0 12,0 12,12" fill="#6B7279" visibility="visible"/><text font-size="12" fill="black"><tspan x="4" y="46.625">Impair</tspan><tspan x="4" y="61.125">Defenses</tspan></text></g><g class="technique T1027" transform="translate(0, 403)"><rect class="cell" height="100.75" width="105.7752808988764" fill="#c7e9c0" stroke="#6B7279"/><polygon class="sidebar" transform="translate(0, 100.75)" points="0,0 12,0 12,12" fill="#6B7279" visibility="visible"/><text font-size="12" fill="black"><tspan x="4" y="39.20833333333333">Obfuscated</tspan><tspan x="4" y="53.875">Files or</tspan><tspan x="4" y="68.54166666666666">Information</tspan></text></g><g class="technique T1055" transform="translate(0, 604.5)"><rect class="cell" height="100.75" width="105.7752808988764" fill="#c7e9c0" stroke="#6B7279"/><polygon class="sidebar" transform="translate(0, 100.75)" points="0,0 12,0 12,12" fill="#6B7279" visibility="visible"/><text font-size="12" fill="black"><tspan x="4" y="46.625">Process</tspan><tspan x="4" y="61.125">Injection</tspan></text></g></g><g class="subtechniques"><g class="subtechnique T1562.001" transform="translate(15, 302.25)"><rect class="cell" height="100.75" width="90.7752808988764" fill="white" stroke="#6B7279"/><rect class="cell" height="100.75" width="3" transform="translate(-3, 0)" fill="#6B7279" stroke="#6B7279"/><text font-size="12" fill="black"><tspan x="4" y="39.20833333333333">Disable or</tspan><tspan x="4" y="53.875">Modify</tspan><tspan x="4" y="68.54166666666666">Tools</tspan></text></g><g class="subtechnique T1027.002" transform="translate(15, 503.75)"><rect class="cell" height="100.75" width="90.7752808988764" fill="white" stroke="#6B7279"/><rect class="cell" height="100.75" width="3" transform="translate(-3, 0)" fill="#6B7279" stroke="#6B7279"/><text font-size="12" fill="black"><tspan x="4" y="46.625">Software</tspan><tspan x="4" y="61.125">Packing</tspan></text></g><g class="subtechnique T1055.012" transform="translate(15, 705.25)"><rect class="cell" height="100.75" width="90.7752808988764" fill="white" stroke="#6B7279"/><rect class="cell" height="100.75" width="3" transform="translate(-3, 0)" fill="#6B7279" stroke="#6B7279"/><text font-size="12" fill="black"><tspan x="4" y="46.625">Process</tspan><tspan x="4" y="61.125">Hollowing</tspan></text></g></g><g class="tactic-label"><text font-size="12" fill="black" font-weight="bold"><tspan text-anchor="middle" x="52.8876404494382" y="46.625">Defense</tspan><tspan text-anchor="middle" x="52.8876404494382" y="61.125">Evasion</tspan></text></g></g><g class="tactic credential-access" transform="translate(587.6404494382023, 0)"><g class="techniques"><g class="technique T1555" transform="translate(0, 100.75)"><rect class="cell" height="100.75" width="105.7752808988764" fill="#c7e9c0" stroke="#6B7279"/><polygon class="sidebar" transform="translate(0, 100.75)" points="0,0 12,0 12,12" fill="#6B7279" visibility="visible"/><text font-size="12" fill="black"><tspan x="4" y="31.75">Credentials</tspan><tspan x="4" y="46.5">from</tspan><tspan x="4" y="61.25">Password</tspan><tspan x="4" y="76">Stores</tspan></text></g><g class="technique T1056" transform="translate(0, 302.25)"><rect class="cell" height="100.75" width="105.7752808988764" fill="#c7e9c0" stroke="#6B7279"/><polygon class="sidebar" transform="translate(0, 100.75)" points="0,0 12,0 12,12" fill="#6B7279" visibility="visible"/><text font-size="12" fill="black"><tspan x="4" y="46.625">Input</tspan><tspan x="4" y="61.125">Capture</tspan></text></g><g class="technique T1552" transform="translate(0, 503.75)"><rect class="cell" height="100.75" width="105.7752808988764" fill="#c7e9c0" stroke="#6B7279"/><polygon class="sidebar" transform="translate(0, 100.75)" points="0,0 12,0 12,12" fill="#6B7279" visibility="visible"/><text font-size="12" fill="black"><tspan x="4" y="46.625">Unsecured</tspan><tspan x="4" y="61.125">Credentials</tspan></text></g></g><g class="subtechniques"><g class="subtechnique T1555.003" transform="translate(15, 201.5)"><rect class="cell" height="100.75" width="90.7752808988764" fill="white" stroke="#6B7279"/><rect class="cell" height="100.75" width="3" transform="translate(-3, 0)" fill="#6B7279" stroke="#6B7279"/><text font-size="10.911287027579162" fill="black"><tspan x="4" y="39.20833333333333">Credentials</tspan><tspan x="4" y="53.875">from Web</tspan><tspan x="4" y="68.54166666666666">Browsers</tspan></text></g><g class="subtechnique T1056.004" transform="translate(15, 403)"><rect class="cell" height="100.75" width="90.7752808988764" fill="white" stroke="#6B7279"/><rect class="cell" height="100.75" width="3" transform="translate(-3, 0)" fill="#6B7279" stroke="#6B7279"/><text font-size="12" fill="black"><tspan x="4" y="39.20833333333333">Credential</tspan><tspan x="4" y="53.875">API</tspan><tspan x="4" y="68.54166666666666">Hooking</tspan></text></g><g class="subtechnique T1552.001" transform="translate(15, 604.5)"><rect class="cell" height="100.75" width="90.7752808988764" fill="white" stroke="#6B7279"/><rect class="cell" height="100.75" width="3" transform="translate(-3, 0)" fill="#6B7279" stroke="#6B7279"/><text font-size="10.911287027579162" fill="black"><tspan x="4" y="46.625">Credentials</tspan><tspan x="4" y="61.125">In Files</tspan></text></g><g class="subtechnique T1552.002" transform="translate(15, 705.25)"><rect class="cell" height="100.75" width="90.7752808988764" fill="white" stroke="#6B7279"/><rect class="cell" height="100.75" width="3" transform="translate(-3, 0)" fill="#6B7279" stroke="#6B7279"/><text font-size="10.911287027579162" fill="black"><tspan x="4" y="46.625">Credentials</tspan><tspan x="4" y="61.125">in Registry</tspan></text></g></g><g class="tactic-label"><text font-size="12" fill="black" font-weight="bold"><tspan text-anchor="middle" x="52.8876404494382" y="46.625">Credential</tspan><tspan text-anchor="middle" x="52.8876404494382" y="61.125">Access</tspan></text></g></g><g class="tactic discovery" transform="translate(705.1685393258426, 0)"><g class="techniques"><g class="technique T1482" transform="translate(0, 100.75)"><rect class="cell" height="100.75" width="105.7752808988764" fill="#c7e9c0" stroke="#6B7279"/><polygon class="sidebar" transform="translate(0, 100.75)" points="0,0 12,0 12,0" fill="#6B7279" visibility="hidden"/><text font-size="12" fill="black"><tspan x="4" y="39.20833333333333">Domain</tspan><tspan x="4" y="53.875">Trust</tspan><tspan x="4" y="68.54166666666666">Discovery</tspan></text></g><g class="technique T1083" transform="translate(0, 201.5)"><rect class="cell" height="100.75" width="105.7752808988764" fill="#c7e9c0" stroke="#6B7279"/><polygon class="sidebar" transform="translate(0, 100.75)" points="0,0 12,0 12,0" fill="#6B7279" visibility="hidden"/><text font-size="12" fill="black"><tspan x="4" y="39.20833333333333">File and</tspan><tspan x="4" y="53.875">Directory</tspan><tspan x="4" y="68.54166666666666">Discovery</tspan></text></g><g class="technique T1082" transform="translate(0, 302.25)"><rect class="cell" height="100.75" width="105.7752808988764" fill="#c7e9c0" stroke="#6B7279"/><polygon class="sidebar" transform="translate(0, 100.75)" points="0,0 12,0 12,0" fill="#6B7279" visibility="hidden"/><text font-size="12" fill="black"><tspan x="4" y="39.20833333333333">System</tspan><tspan x="4" y="53.875">Information</tspan><tspan x="4" y="68.54166666666666">Discovery</tspan></text></g><g class="technique T1016" transform="translate(0, 403)"><rect class="cell" height="100.75" width="105.7752808988764" fill="#c7e9c0" stroke="#6B7279"/><polygon class="sidebar" transform="translate(0, 100.75)" points="0,0 12,0 12,0" fill="#6B7279" visibility="hidden"/><text font-size="10.905704407951598" fill="black"><tspan x="4" y="31.75">System</tspan><tspan x="4" y="46.5">Network</tspan><tspan x="4" y="61.25">Configuration</tspan><tspan x="4" y="76">Discovery</tspan></text></g><g class="technique T1007" transform="translate(0, 503.75)"><rect class="cell" height="100.75" width="105.7752808988764" fill="#c7e9c0" stroke="#6B7279"/><polygon class="sidebar" transform="translate(0, 100.75)" points="0,0 12,0 12,0" fill="#6B7279" visibility="hidden"/><text font-size="12" fill="black"><tspan x="4" y="39.20833333333333">System</tspan><tspan x="4" y="53.875">Service</tspan><tspan x="4" y="68.54166666666666">Discovery</tspan></text></g></g><g class="subtechniques"/><g class="tactic-label"><text font-size="12" fill="black" font-weight="bold"><tspan text-anchor="middle" x="52.8876404494382" y="53.875">Discovery</tspan></text></g></g><g class="tactic collection" transform="translate(822.6966292134831, 0)"><g class="techniques"><g class="technique T1005" transform="translate(0, 100.75)"><rect class="cell" height="100.75" width="105.7752808988764" fill="#c7e9c0" stroke="#6B7279"/><polygon class="sidebar" transform="translate(0, 100.75)" points="0,0 12,0 12,0" fill="#6B7279" visibility="hidden"/><text font-size="12" fill="black"><tspan x="4" y="39.20833333333333">Data from</tspan><tspan x="4" y="53.875">Local</tspan><tspan x="4" y="68.54166666666666">System</tspan></text></g><g class="technique T1056" transform="translate(0, 201.5)"><rect class="cell" height="100.75" width="105.7752808988764" fill="#c7e9c0" stroke="#6B7279"/><polygon class="sidebar" transform="translate(0, 100.75)" points="0,0 12,0 12,12" fill="#6B7279" visibility="visible"/><text font-size="12" fill="black"><tspan x="4" y="46.625">Input</tspan><tspan x="4" y="61.125">Capture</tspan></text></g><g class="technique T1185" transform="translate(0, 403)"><rect class="cell" height="100.75" width="105.7752808988764" fill="#c7e9c0" stroke="#6B7279"/><polygon class="sidebar" transform="translate(0, 100.75)" points="0,0 12,0 12,0" fill="#6B7279" visibility="hidden"/><text font-size="12" fill="black"><tspan x="4" y="46.625">Man in the</tspan><tspan x="4" y="61.125">Browser</tspan></text></g></g><g class="subtechniques"><g class="subtechnique T1056.004" transform="translate(15, 302.25)"><rect class="cell" height="100.75" width="90.7752808988764" fill="white" stroke="#6B7279"/><rect class="cell" height="100.75" width="3" transform="translate(-3, 0)" fill="#6B7279" stroke="#6B7279"/><text font-size="12" fill="black"><tspan x="4" y="39.20833333333333">Credential</tspan><tspan x="4" y="53.875">API</tspan><tspan x="4" y="68.54166666666666">Hooking</tspan></text></g></g><g class="tactic-label"><text font-size="12" fill="black" font-weight="bold"><tspan text-anchor="middle" x="52.8876404494382" y="53.875">Collection</tspan></text></g></g><g class="tactic command-and-control" transform="translate(940.2247191011236, 0)"><g class="techniques"><g class="technique T1071" transform="translate(0, 100.75)"><rect class="cell" height="100.75" width="105.7752808988764" fill="#c7e9c0" stroke="#6B7279"/><polygon class="sidebar" transform="translate(0, 100.75)" points="0,0 12,0 12,12" fill="#6B7279" visibility="visible"/><text font-size="12" fill="black"><tspan x="4" y="39.20833333333333">Application</tspan><tspan x="4" y="53.875">Layer</tspan><tspan x="4" y="68.54166666666666">Protocol</tspan></text></g><g class="technique T1573" transform="translate(0, 302.25)"><rect class="cell" height="100.75" width="105.7752808988764" fill="#c7e9c0" stroke="#6B7279"/><polygon class="sidebar" transform="translate(0, 100.75)" points="0,0 12,0 12,12" fill="#6B7279" visibility="visible"/><text font-size="12" fill="black"><tspan x="4" y="46.625">Encrypted</tspan><tspan x="4" y="61.125">Channel</tspan></text></g><g class="technique T1105" transform="translate(0, 503.75)"><rect class="cell" height="100.75" width="105.7752808988764" fill="#c7e9c0" stroke="#6B7279"/><polygon class="sidebar" transform="translate(0, 100.75)" points="0,0 12,0 12,0" fill="#6B7279" visibility="hidden"/><text font-size="12" fill="black"><tspan x="4" y="39.20833333333333">Ingress</tspan><tspan x="4" y="53.875">Tool</tspan><tspan x="4" y="68.54166666666666">Transfer</tspan></text></g><g class="technique T1571" transform="translate(0, 604.5)"><rect class="cell" height="100.75" width="105.7752808988764" fill="#c7e9c0" stroke="#6B7279"/><polygon class="sidebar" transform="translate(0, 100.75)" points="0,0 12,0 12,0" fill="#6B7279" visibility="hidden"/><text font-size="11.814513108614232" fill="black"><tspan x="4" y="46.625">Non-Standard</tspan><tspan x="4" y="61.125">Port</tspan></text></g></g><g class="subtechniques"><g class="subtechnique T1071.001" transform="translate(15, 201.5)"><rect class="cell" height="100.75" width="90.7752808988764" fill="white" stroke="#6B7279"/><rect class="cell" height="100.75" width="3" transform="translate(-3, 0)" fill="#6B7279" stroke="#6B7279"/><text font-size="12" fill="black"><tspan x="4" y="46.625">Web</tspan><tspan x="4" y="61.125">Protocols</tspan></text></g><g class="subtechnique T1573.001" transform="translate(15, 403)"><rect class="cell" height="100.75" width="90.7752808988764" fill="white" stroke="#6B7279"/><rect class="cell" height="100.75" width="3" transform="translate(-3, 0)" fill="#6B7279" stroke="#6B7279"/><text font-size="10.002013108614232" fill="black"><tspan x="4" y="46.625">Symmetric</tspan><tspan x="4" y="61.125">Cryptography</tspan></text></g></g><g class="tactic-label"><text font-size="12" fill="black" font-weight="bold"><tspan text-anchor="middle" x="52.8876404494382" y="46.625">Command and</tspan><tspan text-anchor="middle" x="52.8876404494382" y="61.125">Control</tspan></text></g></g></g></g></g></svg>